<?xml version="1.0" encoding="utf-8"?>
<!-- Generator: Adobe Illustrator 25.0.0, SVG Export Plug-In . SVG Version: 6.00 Build 0)  -->
<svg version="1.1" xmlns="http://www.w3.org/2000/svg" xmlns:xlink="http://www.w3.org/1999/xlink" x="0px" y="0px"
	 viewBox="0 0 1280 720" style="enable-background:new 0 0 1280 720;" xml:space="preserve">
<style type="text/css">
	.st0{fill:#73C3D3;}
	.st1{fill:#FF8471;}
	.st2{fill:#DBE3EA;}
	.st3{fill:#44465A;}
	.st4{fill:#E3634F;}
	.st5{fill:#FEFEFE;}
	.st6{fill:#434659;}
	.st7{fill:#615969;}
	.st8{fill:#FFFFFF;}
	.st9{fill:#393841;}
	.st10{fill:#43465A;}
	.st11{fill:#5D5D66;}
	.st12{fill:#383742;}
	.st13{fill:#424659;}
	.st14{fill:#FF8473;}
	.st15{fill:#FFE841;}
</style>
<g id="TÅO">
	<circle class="st0" cx="651.38" cy="360" r="322"/>
</g>
<g id="Warstwa_1">
	<g>
		<rect x="420.66" y="342.44" class="st1" width="461.43" height="156.56"/>
	</g>
	<g>
		<rect x="420.66" y="285.92" class="st2" width="461.43" height="70.83"/>
	</g>
	<g>
		<rect x="435.41" y="217.11" class="st2" width="431.94" height="5.46"/>
	</g>
	<g>
		<rect x="477.04" y="211.29" class="st3" width="348.68" height="17.09"/>
	</g>
	<g>
		<g>
			<rect x="435.41" y="217.11" class="st2" width="6.37" height="68.81"/>
		</g>
		<g>
			<rect x="859.71" y="217.11" class="st2" width="7.64" height="68.81"/>
		</g>
	</g>
	<g>
		<rect x="611.01" y="373.01" class="st4" width="80.75" height="27.79"/>
	</g>
	<g>
		<rect x="611.01" y="426.74" class="st4" width="80.75" height="27.79"/>
	</g>
	<g>
		<rect x="511.3" y="303.58" class="st5" width="280.15" height="18.48"/>
	</g>
	<g>
		<g>
			<rect x="779.95" y="269.89" class="st1" width="46.51" height="15.04"/>
		</g>
		<g>
			<rect x="476.3" y="270.38" class="st1" width="46.51" height="15.04"/>
		</g>
	</g>
	<g>
		<g>
			<g>
				<ellipse class="st6" cx="498.64" cy="426.84" rx="67.56" ry="66.61"/>
			</g>
			<g>
				<path class="st7" d="M498.64,481.86c-30.79,0-55.83-24.68-55.83-55.02c0-30.34,25.05-55.02,55.83-55.02
					c30.79,0,55.83,24.68,55.83,55.02C554.47,457.18,529.42,481.86,498.64,481.86z"/>
				<g>
					<path class="st8" d="M498.64,373.82c29.68,0,53.83,23.78,53.83,53.02c0,29.24-24.15,53.02-53.83,53.02
						s-53.83-23.78-53.83-53.02C444.8,397.6,468.95,373.82,498.64,373.82 M498.64,369.82c-31.94,0-57.83,25.53-57.83,57.02
						s25.89,57.02,57.83,57.02s57.83-25.53,57.83-57.02S530.58,369.82,498.64,369.82L498.64,369.82z"/>
				</g>
			</g>
			<g>
				<ellipse class="st9" cx="498.64" cy="426.84" rx="20.72" ry="20.43"/>
			</g>
		</g>
		<g>
			<g>
				<ellipse class="st7" cx="804.12" cy="426.84" rx="67.56" ry="66.61"/>
			</g>
			<g>
				<g>
					<path class="st8" d="M804.12,373.82c29.68,0,53.83,23.78,53.83,53.02c0,29.24-24.15,53.02-53.83,53.02
						s-53.83-23.78-53.83-53.02C750.29,397.6,774.44,373.82,804.12,373.82 M804.12,369.82c-31.94,0-57.83,25.53-57.83,57.02
						s25.89,57.02,57.83,57.02s57.83-25.53,57.83-57.02S836.06,369.82,804.12,369.82L804.12,369.82z"/>
				</g>
			</g>
			<g>
				<ellipse class="st9" cx="804.12" cy="426.84" rx="20.72" ry="20.43"/>
			</g>
		</g>
	</g>
	<g>
		<g>
			<g>
				<ellipse class="st10" cx="469.67" cy="314.08" rx="24.95" ry="24.98"/>
			</g>
			<g>
				<ellipse class="st11" cx="469.67" cy="314.08" rx="21.36" ry="21.38"/>
			</g>
			<g>
				<ellipse class="st12" cx="469.67" cy="314.08" rx="7.65" ry="7.66"/>
			</g>
		</g>
		<g>
			<g>
				<ellipse class="st10" cx="833.09" cy="314.08" rx="24.95" ry="24.98"/>
			</g>
			<g>
				<ellipse class="st11" cx="833.09" cy="314.08" rx="21.36" ry="21.38"/>
			</g>
			<g>
				<ellipse class="st12" cx="833.09" cy="314.08" rx="7.65" ry="7.66"/>
			</g>
		</g>
	</g>
	<rect x="636.46" y="278.69" class="st13" width="29.84" height="6.94"/>
	<rect x="614.52" y="376.7" class="st2" width="73.72" height="19.95"/>
	<rect x="636.46" y="278.69" class="st13" width="29.84" height="6.94"/>
	<rect x="686.46" y="278.69" class="st13" width="29.84" height="6.94"/>
	<rect x="586.46" y="278.69" class="st13" width="29.84" height="6.94"/>
	<rect x="736.46" y="278.69" class="st13" width="29.84" height="6.94"/>
	<rect x="536.46" y="278.69" class="st13" width="29.84" height="6.94"/>
	<g>
		<g>
			<rect x="578.96" y="331.53" class="st14" width="17.49" height="7.88"/>
			<rect x="604.43" y="331.53" class="st14" width="17.49" height="7.88"/>
			<rect x="629.9" y="331.53" class="st14" width="17.49" height="7.88"/>
			<rect x="655.37" y="331.53" class="st14" width="17.49" height="7.88"/>
			<rect x="680.84" y="331.53" class="st14" width="17.49" height="7.88"/>
			<rect x="706.31" y="331.53" class="st14" width="17.49" height="7.88"/>
		</g>
	</g>
	<g>
		<g>
			<rect x="600.64" y="479.92" class="st6" width="15.61" height="7.81"/>
			<rect x="622.11" y="479.92" class="st6" width="15.61" height="7.81"/>
			<rect x="643.57" y="479.92" class="st6" width="15.61" height="7.81"/>
			<rect x="665.04" y="479.92" class="st6" width="15.61" height="7.81"/>
			<rect x="686.51" y="479.92" class="st6" width="15.61" height="7.81"/>
		</g>
	</g>
	<g>
		<g>
			<path class="st15" d="M651.38,481.62c1.93,0,1.93-3,0-3C649.45,478.62,649.45,481.62,651.38,481.62L651.38,481.62z"/>
		</g>
	</g>
</g>
</svg>
