<?xml version="1.0" encoding="utf-8"?>
<!-- Generator: Adobe Illustrator 25.0.0, SVG Export Plug-In . SVG Version: 6.00 Build 0)  -->
<svg version="1.1" xmlns="http://www.w3.org/2000/svg" xmlns:xlink="http://www.w3.org/1999/xlink" x="0px" y="0px" width="1920px"
	 height="1080px" viewBox="0 0 1920 1080" style="enable-background:new 0 0 1920 1080;" xml:space="preserve">
<style type="text/css">
	.st0{fill:#BBE240;}
	.st1{fill:url(#SVGID_1_);}
	.st2{fill:#AD6036;}
	.st3{fill:url(#SVGID_2_);}
	.st4{opacity:0.6;fill:#FF5543;}
	.st5{opacity:0.3;fill:#FFE266;}
	.st6{fill:#42210B;stroke:#42210B;stroke-width:11;stroke-miterlimit:10;}
	.st7{fill:#77CE06;}
	.st8{fill:#F2F490;}
	.st9{fill:#F2F490;stroke:#F2F490;stroke-linecap:round;stroke-miterlimit:10;}
	.st10{opacity:0.6;fill:#42210B;}
	.st11{fill:#FFFFFF;}
	.st12{fill:none;stroke:url(#SVGID_3_);stroke-width:11;stroke-linecap:round;stroke-linejoin:round;stroke-miterlimit:10;}
	.st13{fill:none;stroke:#42210B;stroke-width:11;stroke-linecap:round;stroke-linejoin:round;stroke-miterlimit:10;}
	.st14{fill:#42210B;}
</style>
<g id="kolor">
	<path class="st0" d="M1364.5,688.5c-25.94,7.13-104.46-38.73-167.36-97.22c-34.09-31.69-63.58-67.09-77.64-99.78
		c-16.53-38.43-29.3-74.63-37.68-110.52c-11.9-50.98-14.95-101.32-7.32-156.48c0,0,67.09,87.04,124,114c57,27,58.89,16.27,114,62
		c26.96,22.36,34.18,68.42,34.49,108.16c0.23,29.55-3.36,55.61-5.49,65.84C1336.5,598.5,1343.5,662.5,1364.5,688.5z"/>
	<path class="st0" d="M1487.49,498.84c-36.9-9.65-77.54,34.54-137.5,9.82c-0.31-39.74-7.53-85.8-34.49-108.16
		c-55.11-45.73-57-35-114-62c-56.91-26.96-124-114-124-114c54,41,65,21,153,36c42.4,7.23,127,52,158,99
		C1416.92,402.59,1466.37,486.04,1487.49,498.84z"/>
	
		<radialGradient id="SVGID_1_" cx="948.257" cy="889.0287" r="456.2288" gradientTransform="matrix(1.0045 0 0 1 -2.6529 0)" gradientUnits="userSpaceOnUse">
		<stop  offset="0" style="stop-color:#FFC239"/>
		<stop  offset="0.0311" style="stop-color:#FFBF3A"/>
		<stop  offset="0.4465" style="stop-color:#FF9847"/>
		<stop  offset="0.7781" style="stop-color:#FF804F"/>
		<stop  offset="0.9825" style="stop-color:#FF7752"/>
	</radialGradient>
	<path class="st1" d="M998.65,318.99c0,0-113.63-40.25-224.65,12.01S579.68,493.25,601,637s98.36,187,108,194
		s18.97-0.88,47.41,69.56s94.62,8,109.59,7.44s174.7-33.94,207.13-70c32.43-36.06,106.87-73,120.54-190.81
		c10.74-92.54-49.22-86.19-69.31-141.19c-4.57-12.52-47.57-130.04-47.39-130.02s-45.02-17.83-44.02-15.98
		C1033.96,361.85,998.65,318.99,998.65,318.99L998.65,318.99z"/>
	<path class="st2" d="M1070.32,226.45c6.95,52.12,12.31,123.88-5.51,137.72C1047,378,1040,374.55,1028,353.28
		c0-26.55,37.39-30.64,9.7-142.46c-69.39-0.63,14.94-71.79,44.12-56.8C1096.18,208.99,1062.65,168.89,1070.32,226.45z"/>
	<radialGradient id="SVGID_2_" cx="649.2329" cy="439.048" r="0" gradientUnits="userSpaceOnUse">
		<stop  offset="0" style="stop-color:#FFC239"/>
		<stop  offset="0.2595" style="stop-color:#FF9D3C"/>
		<stop  offset="0.5749" style="stop-color:#FF7640"/>
		<stop  offset="0.8271" style="stop-color:#FF5E42"/>
		<stop  offset="0.9825" style="stop-color:#FF5543"/>
	</radialGradient>
	<path class="st3" d="M649.23,439.05"/>
	<path class="st4" d="M649,439c0,0-28,193,73,246c-12.06,74.53,0,141,11,161c-132-77-174-292-74-430"/>
	<path class="st4" d="M1034,369c-28,72,34.28,238.56,159.14,226.28C1095,494,1091.58,433.3,1091.58,433.3l-15.22-54.8L1034,369"/>
	<path class="st5" d="M1193,623c-29,136-107,227-279,258c-100.4,18.1-130.86,64.14-60,41c42.25-13.8,194-59,230.23-88.9
		c4.72-3.9,44.53-27.83,57.51-51.73C1149,768,1150,776,1160.2,749.75L1182,710L1193,623L1193,623z"/>
	<path class="st6" d="M871,496"/>
	<path class="st5" d="M910.42,494.95c0.71,3.1,1.07,6.02,1.43,8.94l0.41,4.32c0.1,1.42,0.2,2.84,0.26,4.24
		c0.27,5.62,0.18,11.06-0.12,16.39c-0.64,10.65-2.17,20.86-4.49,30.67c-4.53,19.68-12.05,37.88-21.46,55.13
		c-9.34,17.29-20.26,33.79-33.34,49.22c-3.25,3.87-6.67,7.65-10.23,11.36c-3.55,3.72-7.26,7.36-11.16,10.9
		c-3.9,3.54-7.97,7-12.31,10.33c-4.38,3.3-8.85,6.56-13.99,9.49c-3.18,1.81-7.22,0.7-9.03-2.47c-0.43-0.76-0.7-1.61-0.81-2.43
		c-0.76-5.86-0.86-11.4-0.86-16.88c0.04-5.47,0.34-10.8,0.82-16.05c0.47-5.25,1.14-10.4,1.96-15.48c0.82-5.08,1.77-10.09,2.9-15.01
		c4.42-19.74,11-38.4,19.16-56.28c8.09-17.91,18.07-34.88,31.04-50.37c6.44-7.77,13.66-15.14,21.76-22.08
		c4.07-3.46,8.36-6.81,13-9.98c1.15-0.8,2.34-1.58,3.54-2.35l3.69-2.27c2.55-1.48,5.09-2.95,7.99-4.25c3.59-1.61,7.8,0,9.41,3.58
		C910.17,494.05,910.32,494.52,910.42,494.95z"/>
	<path class="st7" d="M1077.5,252.15c0,0,36.69,99.47,85.5,142.85c45,40,93.77,76.42,86,129c-13,88-49,99-120.34-13.72
		C1084.87,441.08,1053,252.3,1077.5,252.15z"/>
	<path class="st7" d="M1101,248c0,0,2.31,32.1,158.69,73.36C1300,332,1352,353,1349,464c-33-102-86.28-93-114.64-108
		S1125,297,1101,248z"/>
	<g>
		<path class="st8" d="M1224.61,383.16c2.87,0.02,5.65,0.35,8.38,0.85c2.74,0.48,5.4,1.18,8.03,1.98c5.27,1.6,10.29,3.82,15.08,6.46
			c9.56,5.31,18.17,12.38,25.34,20.68c7.23,8.25,12.96,17.83,16.6,28.19c1.81,5.18,3.1,10.56,3.72,16.06
			c0.17,1.37,0.23,2.78,0.34,4.15c0.03,1.4,0.09,2.79,0.05,4.2c-0.06,2.81-0.3,5.64-0.93,8.53c-0.75,3.45-4.16,5.64-7.61,4.89
			c-0.99-0.21-1.87-0.65-2.61-1.24l-0.21-0.17c-2.2-1.76-4.1-3.55-5.93-5.31c-0.93-0.88-1.79-1.77-2.69-2.63l-2.57-2.61
			c-3.36-3.46-6.46-6.88-9.45-10.25c-5.98-6.74-11.38-13.42-16.84-20.15c-5.43-6.74-10.92-13.45-16.56-20.55
			c-2.81-3.56-5.69-7.18-8.58-11.03c-0.73-0.95-1.47-1.91-2.19-2.91c-0.74-0.97-1.47-1.98-2.21-3c-1.46-2.05-2.97-4.12-4.4-6.46
			l-0.13-0.21c-1.79-2.93-0.86-6.76,2.07-8.55C1222.35,383.45,1223.5,383.16,1224.61,383.16z"/>
	</g>
	<path class="st9" d="M1103.5,243.5c0,0,16,22.06,94.5,27.03c39.98,2.53,99.5,26.97,148.5,62.97c29.33,21.55,71.77,100.53,86,102
		c-60-99-102-168-215.09-177.06C1090.34,248.26,1103.5,243.5,1103.5,243.5z"/>
	<path class="st10" d="M1070.32,226.45c0,0-23.82-4.79-23.57,33.38C1047,298,1028,342,1028,342l9.7,23.61l22.25,4.55l15.1-25.58
		l-4.09-115.91"/>
	
		<ellipse transform="matrix(0.8207 -0.5714 0.5714 0.8207 76.4834 624.7025)" class="st10" cx="1033.5" cy="190.5" rx="10.5" ry="5.5"/>
</g>
<g id="linie">
	<path class="st11" d="M1743,310"/>
	<linearGradient id="SVGID_3_" gradientUnits="userSpaceOnUse" x1="837.5" y1="407.5" x2="837.5" y2="407.5">
		<stop  offset="0" style="stop-color:#CCE0F4"/>
		<stop  offset="0.0891" style="stop-color:#C8D7EB"/>
		<stop  offset="0.2374" style="stop-color:#BDBFD1"/>
		<stop  offset="0.4266" style="stop-color:#AC98A7"/>
		<stop  offset="0.6493" style="stop-color:#94626E"/>
		<stop  offset="0.8974" style="stop-color:#751E25"/>
		<stop  offset="1" style="stop-color:#680005"/>
	</linearGradient>
	<path class="st12" d="M837.5,407.5"/>
	<path class="st13" d="M1484.5,498.85c0,0,0,0-0.01-0.01C1484.5,498.85,1484.5,498.85,1484.5,498.85c1.91,1.16,3.59,1.73,5,1.65
		C1487.84,499.83,1486.18,499.28,1484.5,498.85"/>
	<path class="st13" d="M738.3,852.22C655.73,799.36,601,706.82,601,601.5C601,437.2,734.2,304,898.5,304
		c36.44,0,71.95,8.53,105.35,19.99c8.06,2.76,14.67,8.64,18.41,16.29l8.31,16.98c3.54,7.23,10.74,11.96,18.78,12.33l8.43,0.39
		c6.16,0.28,12.08,2.37,17.11,5.94c2.33,1.65,4.64,3.34,6.93,5.07"/>
	<g>
		<path class="st14" d="M1202.62,590.86c1.18,13.4,1.49,26.89,0.82,40.36c-0.27,6.74-0.93,13.46-1.69,20.17
			c-0.87,6.7-1.88,13.38-3.22,20.01c-5.23,26.54-14.66,52.3-27.74,76.05c-6.53,11.88-13.96,23.27-22.19,34.03
			c-8.23,10.77-17.23,20.92-26.84,30.46c-19.25,19.04-40.94,35.5-64.18,49.21c-23.23,13.73-47.93,24.88-73.42,33.5
			c-12.74,4.35-25.7,8.01-38.79,11.11c-6.56,1.49-13.12,2.94-19.74,4.14c-3.3,0.65-6.62,1.17-9.93,1.75l-9.75,1.52
			c-6.14,1.06-12.56,2.5-18.89,3.97c-6.35,1.49-12.7,3.07-19.02,4.73l-4.74,1.26l-4.66,1.27c-2.95,0.84-5.93,1.83-8.9,2.9
			c-2.97,1.07-5.92,2.23-8.82,3.46l-1.2,0.5c-0.43,0.18-0.85,0.35-1.28,0.52c-0.85,0.34-1.71,0.65-2.56,0.96
			c-1.71,0.61-3.43,1.16-5.17,1.66c-6.93,1.99-14.06,3.26-21.48,3.48c-3.71,0.09-7.49-0.1-11.33-0.71
			c-3.83-0.63-7.73-1.68-11.51-3.44c-0.95-0.43-1.86-0.93-2.76-1.41l-2.16-1.21l-4.32-2.42l-2.16-1.21
			c-0.33-0.17-0.82-0.48-1.23-0.73c-0.43-0.26-0.87-0.52-1.28-0.79c-1.64-1.09-3.24-2.23-4.71-3.47
			c-5.96-4.95-10.56-10.84-14.36-16.91c-3.82-6.08-6.86-12.39-9.54-18.74c-2.67-6.36-4.94-12.76-7.06-19.13
			c-4.24-12.76-7.86-25.71-10.91-38.79c-3.04-13.08-5.52-26.29-7.35-39.59c-1.82-13.31-3.01-26.7-3.57-40.12
			c-1.11-26.84,0.32-53.81,4.64-80.34c4.34-26.52,11.56-52.55,21.42-77.5c19.77-49.87,50.37-95.27,88.86-132.17
			c19.18-18.52,40.29-34.92,62.68-49.17c22.42-14.19,46.17-26.26,70.92-35.53c-12.09,5.32-23.85,11.34-35.31,17.83
			c-11.47,6.49-22.59,13.54-33.37,21.07c-21.59,15-41.64,32.1-59.89,50.85c-18.21,18.8-34.45,39.42-48.43,61.43
			c-13.98,22.01-25.51,45.52-34.64,69.85c-9.07,24.36-15.55,49.66-19.24,75.35c-3.8,25.67-4.9,51.73-3.49,77.64
			c0.7,12.96,2.02,25.89,3.93,38.73c1.9,12.84,4.33,25.61,7.36,38.23c3.03,12.62,6.61,25.11,10.77,37.39
			c2.08,6.15,4.27,12.18,6.75,17.99c2.48,5.8,5.25,11.39,8.49,16.48c3.23,5.09,6.95,9.67,11.2,13.14c1.05,0.88,2.16,1.65,3.27,2.38
			c0.28,0.18,0.55,0.33,0.83,0.5c0.29,0.17,0.5,0.31,0.9,0.53l2.17,1.2l4.34,2.39l2.17,1.2c0.56,0.29,1.09,0.59,1.65,0.83
			c4.44,2.04,10.08,2.79,15.84,2.6c5.78-0.17,11.77-1.21,17.52-2.88c1.44-0.42,2.86-0.87,4.26-1.37c0.7-0.25,1.39-0.51,2.07-0.78
			c0.34-0.13,0.68-0.27,1.02-0.41l1.08-0.45c3.18-1.35,6.38-2.61,9.62-3.78c3.24-1.17,6.53-2.27,9.93-3.24l4.89-1.34l4.83-1.29
			c6.45-1.7,12.91-3.31,19.41-4.85c6.53-1.52,13-3,19.87-4.19l9.82-1.54c3.19-0.57,6.4-1.07,9.58-1.7
			c6.38-1.16,12.71-2.57,19.03-4.01c12.6-3.03,25.11-6.45,37.38-10.6c24.57-8.19,48.32-18.8,70.61-31.86
			c22.26-13.08,43.17-28.5,61.63-46.48c18.46-17.95,34.5-38.36,47.22-60.71c12.72-22.34,21.96-46.64,27.47-71.81
			c1.39-6.29,2.47-12.65,3.43-19.03l0.62-4.8c0.22-1.6,0.4-3.2,0.55-4.81l0.49-4.82l0.37-4.83c0.96-12.89,0.98-25.88,0.15-38.8
			l0-0.01c-0.19-3.03,2.11-5.65,5.14-5.84C1199.78,585.66,1202.36,587.9,1202.62,590.86z"/>
	</g>
	<g>
		<path class="st14" d="M1045.34,210.34c-3,1.75-6.26,3.19-9.79,3.99c-3.51,0.8-7.3,0.96-10.97,0.07c-1.84-0.39-3.63-1.1-5.32-2.01
			c-1.7-0.91-3.28-2.09-4.67-3.64c-2.84-3.18-3.99-7.34-3.96-11.2c0.01-3.89,1.04-7.48,2.41-10.78c1.4-3.3,3.21-6.33,5.24-9.15
			c4.09-5.63,9.08-10.44,14.56-14.54c5.48-4.1,11.48-7.52,17.96-10.04c3.25-1.23,6.61-2.27,10.11-2.93
			c3.5-0.67,7.14-1.02,10.92-0.74c3.76,0.3,7.76,1.18,11.47,3.5c1.84,1.16,3.56,2.69,4.91,4.53c1.35,1.83,2.35,3.95,2.91,6.1
			c0.57,2.16,0.74,4.34,0.64,6.41c-0.11,2.07-0.48,4.04-0.98,5.92c-1.03,3.76-2.66,7.13-4.53,10.26l-0.95,1.14v0l-0.31,0.31
			l-0.4,0.41c-0.27,0.28-0.54,0.58-0.81,0.89c-0.54,0.61-1.05,1.25-1.55,1.9c-0.99,1.31-1.91,2.69-2.71,4.11
			c-1.61,2.84-2.8,5.85-3.41,8.91c-0.3,1.53-0.47,3.07-0.5,4.61c0,1.54,0.12,3.07,0.38,4.59c0.56,3.03,1.69,6.01,3.27,8.84
			l0.02,0.04c1.48,2.65,0.53,6-2.12,7.48c-2.65,1.48-6,0.54-7.48-2.11c-2.1-3.75-3.72-7.91-4.53-12.31
			c-0.39-2.2-0.56-4.44-0.56-6.68c0.04-2.24,0.29-4.46,0.72-6.64c0.87-4.35,2.52-8.44,4.63-12.16c1.06-1.86,2.24-3.64,3.52-5.34
			c0.65-0.85,1.31-1.68,2.03-2.49c0.35-0.41,0.72-0.81,1.1-1.21l0.58-0.6c0.22-0.22,0.38-0.38,0.7-0.68l0,0l-0.95,1.14
			c1.54-2.38,2.84-4.88,3.61-7.36c0.38-1.24,0.65-2.46,0.76-3.63c0.1-1.17,0.04-2.26-0.18-3.25c-0.44-1.97-1.49-3.57-3.25-4.79
			c-1.76-1.22-4.23-1.99-6.91-2.28c-5.42-0.58-11.44,0.53-17.11,2.47c-5.7,1.98-11.19,4.83-16.23,8.33
			c-5.04,3.49-9.64,7.64-13.36,12.39c-1.85,2.37-3.47,4.9-4.7,7.53c-1.21,2.63-2.06,5.39-2.15,8.01c-0.05,1.31,0.08,2.58,0.42,3.74
			c0.33,1.15,0.91,2.28,1.61,3.12c0.74,0.91,1.76,1.75,2.9,2.41c1.14,0.66,2.37,1.23,3.7,1.55c2.63,0.75,5.5,0.76,8.32,0.22
			c2.83-0.53,5.62-1.62,8.28-3.05l0.05-0.03c1.32-0.7,2.95-0.21,3.65,1.11C1047.05,208.02,1046.59,209.62,1045.34,210.34z"/>
	</g>
	<g>
		<path class="st14" d="M1035.71,211.29c1.55,1.62,2.3,3.03,3.08,4.45c0.74,1.41,1.36,2.8,1.93,4.19c1.12,2.78,2.08,5.55,2.93,8.34
			c1.7,5.57,3.05,11.18,4.19,16.83c2.26,11.3,3.68,22.74,4.14,34.31c0.43,11.56-0.05,23.27-2.59,34.95
			c-1.29,5.82-3.15,11.65-6,17.21c-2.84,5.54-6.81,10.86-12.15,14.88l-0.01,0.01c-2.43,1.83-5.88,1.34-7.7-1.09
			c-1.83-2.43-1.34-5.88,1.09-7.7c0.03-0.02,0.08-0.06,0.11-0.08c3.78-2.7,6.89-6.54,9.31-10.97c2.42-4.43,4.18-9.41,5.45-14.57
			c2.52-10.36,3.3-21.39,3.15-32.38c-0.17-11.01-1.26-22.08-3.17-32.98c-0.96-5.44-2.13-10.86-3.59-16.13
			c-0.73-2.63-1.56-5.22-2.49-7.71c-0.48-1.23-0.98-2.43-1.52-3.54c-0.52-1.08-1.19-2.15-1.59-2.58l-0.18-0.2
			c-1.42-1.57-1.31-3.99,0.25-5.41C1031.9,209.7,1034.28,209.79,1035.71,211.29z"/>
	</g>
	<path class="st13" d="M1059.95,370.15c0,0,13.38-11.11,13.05-39.15"/>
	<g>
		<path class="st14" d="M1083,233.58c1.09,16.32,4.4,32.44,9.46,48.01c2.49,7.8,5.59,15.41,8.9,22.91c0.85,1.87,1.79,3.69,2.68,5.54
			c0.93,1.83,1.73,3.72,2.74,5.52l2.93,5.42c0.5,0.9,0.96,1.82,1.48,2.7l1.58,2.64l3.16,5.29l3.38,5.15
			c2.17,3.5,4.65,6.77,7.02,10.14c4.93,6.56,10.09,12.99,15.73,18.92l2.08,2.26c0.7,0.75,1.45,1.44,2.17,2.17
			c1.46,1.43,2.89,2.87,4.38,4.3c3.07,2.83,6.13,5.67,9.27,8.44c6.25,5.58,12.65,11.04,19.07,16.57
			c6.42,5.54,12.8,11.19,19.02,17.11c6.2,5.92,12.24,12.1,17.76,18.76c5.55,6.63,10.57,13.71,15.08,21.07l3.25,5.6
			c1.06,1.88,2.01,3.8,3.02,5.7c1.03,1.89,1.93,3.84,2.85,5.78c0.91,1.95,1.87,3.86,2.67,5.85c3.45,7.85,6.31,15.93,8.83,24.08
			c2.53,8.15,4.62,16.4,6.43,24.69c3.62,16.59,6.32,33.27,9.36,49.9c-4.35-16.35-7.97-32.89-12.59-49.09
			c-4.68-16.17-10.13-32.09-17.59-47c-3.72-7.44-7.76-14.74-12.37-21.6c-4.62-6.86-9.75-13.34-15.27-19.48
			c-11.05-12.3-23.95-22.89-37.04-33.48c-6.55-5.3-13.17-10.62-19.7-16.09c-3.28-2.72-6.5-5.53-9.74-8.33
			c-1.61-1.45-3.2-2.95-4.8-4.43c-0.79-0.75-1.62-1.47-2.38-2.24l-2.29-2.33c-12.22-12.41-22.82-26.29-31.74-41.18
			c-9.01-14.84-16.26-30.78-21.4-47.43c-5.17-16.62-8.2-34.01-8.37-51.49c-0.03-3.04,2.41-5.52,5.45-5.55
			c2.93-0.03,5.34,2.24,5.54,5.12L1083,233.58z"/>
	</g>
	<g>
		<path class="st14" d="M1092.73,234.57c4.02,4.11,8.01,8.25,12.22,12.14c4.19,3.91,8.46,7.72,12.87,11.35
			c8.79,7.3,18.21,13.76,28.06,19.48c9.89,5.66,20.28,10.44,31.06,14.45c10.76,4.06,21.89,7.37,33.13,10.58l16.92,4.85
			c5.64,1.68,11.29,3.41,16.88,5.29c11.19,3.74,22.23,8.01,32.96,12.96c5.37,2.45,10.65,5.13,15.81,8.02
			c5.16,2.88,10.19,6.02,14.97,9.5c4.77,3.49,9.36,7.26,13.41,11.57c2.03,2.15,3.94,4.41,5.59,6.86c1.63,2.45,3.15,5.03,3.89,7.89
			c-0.94-2.78-2.63-5.22-4.41-7.51c-1.81-2.28-3.81-4.39-5.94-6.37c-4.25-3.97-8.99-7.37-13.88-10.48
			c-9.85-6.15-20.37-11.17-31.18-15.42c-10.79-4.3-21.9-7.82-33.08-10.99c-11.18-3.19-22.51-5.84-33.93-8.58
			c-11.41-2.74-22.9-5.63-34.24-9.36c-11.32-3.75-22.48-8.36-33.06-14.11c-21.23-11.46-39.92-27.11-56.08-44.59
			c-2.06-2.23-1.92-5.71,0.31-7.77c2.19-2.02,5.58-1.93,7.66,0.19L1092.73,234.57z"/>
	</g>
	<path class="st13" d="M1364.5,688.5c-25.94,7.13-104.46-38.73-167.36-97.22c-34.09-31.69-63.58-67.09-77.64-99.78
		c-16.53-38.43-29.3-74.63-37.68-110.52c-11.9-50.98-14.95-101.32-7.32-156.48c0,0,67.09,87.04,124,114c57,27,58.89,16.27,114,62
		c26.96,22.36,34.18,68.42,34.49,108.16c0.23,29.55-3.36,55.61-5.49,65.84C1336.5,598.5,1343.5,662.5,1364.5,688.5z"/>
	<path class="st13" d="M1487.49,498.84c-36.9-9.65-77.54,34.54-137.5,9.82c-0.31-39.74-7.53-85.8-34.49-108.16
		c-55.11-45.73-57-35-114-62c-56.91-26.96-124-114-124-114c54,41,65,21,153,36c42.4,7.23,127,52,158,99
		C1416.92,402.59,1466.37,486.04,1487.49,498.84z"/>
</g>
</svg>
