<?xml version="1.0" encoding="utf-8"?>
<!-- Generator: Adobe Illustrator 25.0.0, SVG Export Plug-In . SVG Version: 6.00 Build 0)  -->
<svg version="1.1" xmlns="http://www.w3.org/2000/svg" xmlns:xlink="http://www.w3.org/1999/xlink" x="0px" y="0px" width="1100px"
	 height="1100px" viewBox="0 0 1100 1100" style="enable-background:new 0 0 1100 1100;" xml:space="preserve">
<style type="text/css">
	.st0{fill:#F7F6F0;}
	.st1{fill:none;stroke:url(#SVGID_1_);stroke-width:3;stroke-linecap:round;stroke-linejoin:round;stroke-miterlimit:10;}
	.st2{fill:none;stroke:url(#SVGID_2_);stroke-width:3;stroke-linecap:round;stroke-linejoin:round;stroke-miterlimit:10;}
	.st3{fill:none;stroke:#231854;stroke-width:4;stroke-linecap:round;stroke-linejoin:round;stroke-miterlimit:10;}
	.st4{fill:url(#SVGID_3_);stroke:#231854;stroke-width:2;stroke-linecap:round;stroke-linejoin:round;stroke-miterlimit:10;}
	.st5{fill:none;stroke:url(#SVGID_4_);stroke-width:3;stroke-linecap:round;stroke-linejoin:round;stroke-miterlimit:10;}
	.st6{fill:none;stroke:#231854;stroke-width:4.405;stroke-linecap:round;stroke-linejoin:round;stroke-miterlimit:10;}
	.st7{fill:url(#SVGID_5_);stroke:#231854;stroke-width:5;stroke-linecap:round;stroke-linejoin:round;stroke-miterlimit:10;}
	.st8{fill:url(#SVGID_6_);stroke:#231854;stroke-width:4.405;stroke-linecap:round;stroke-linejoin:round;stroke-miterlimit:10;}
	.st9{fill:url(#SVGID_7_);stroke:#231854;stroke-width:4.405;stroke-linecap:round;stroke-linejoin:round;stroke-miterlimit:10;}
	.st10{fill:url(#SVGID_8_);stroke:#231854;stroke-width:4.405;stroke-linecap:round;stroke-linejoin:round;stroke-miterlimit:10;}
	.st11{opacity:0.1;fill:#231854;}
	.st12{opacity:0.35;fill:#FFFFFF;}
	.st13{fill:#FFFFFF;}
	.st14{fill:none;stroke:#231854;stroke-width:4.1864;stroke-linecap:round;stroke-linejoin:round;stroke-miterlimit:10;}
	
		.st15{fill:url(#SVGID_9_);stroke:url(#SVGID_10_);stroke-width:4.1864;stroke-linecap:round;stroke-linejoin:round;stroke-miterlimit:10;}
	.st16{fill:url(#SVGID_11_);stroke:#231854;stroke-width:4.1864;stroke-linecap:round;stroke-linejoin:round;stroke-miterlimit:10;}
	.st17{fill:none;stroke:#231854;stroke-width:5;stroke-linecap:round;stroke-linejoin:round;stroke-miterlimit:10;}
	.st18{fill:none;stroke:url(#SVGID_12_);stroke-width:4.1864;stroke-linecap:round;stroke-linejoin:round;stroke-miterlimit:10;}
	.st19{fill:none;stroke:url(#SVGID_13_);stroke-width:4.1864;stroke-linecap:round;stroke-linejoin:round;stroke-miterlimit:10;}
	.st20{fill:#231854;}
	.st21{fill:url(#SVGID_14_);stroke:#231854;stroke-width:2;stroke-linecap:round;stroke-linejoin:round;stroke-miterlimit:10;}
	.st22{fill:url(#SVGID_15_);stroke:#231854;stroke-width:2;stroke-linecap:round;stroke-linejoin:round;stroke-miterlimit:10;}
	.st23{fill:url(#SVGID_16_);stroke:#231854;stroke-width:2;stroke-linecap:round;stroke-linejoin:round;stroke-miterlimit:10;}
	.st24{fill:url(#SVGID_17_);stroke:#231854;stroke-width:2;stroke-linecap:round;stroke-linejoin:round;stroke-miterlimit:10;}
	.st25{fill:url(#SVGID_18_);stroke:#231854;stroke-width:2;stroke-linecap:round;stroke-linejoin:round;stroke-miterlimit:10;}
	.st26{fill:url(#SVGID_19_);stroke:#231854;stroke-width:2;stroke-linecap:round;stroke-linejoin:round;stroke-miterlimit:10;}
</style>
<g id="Tło">
	<g>
		<rect class="st0" width="1100" height="1100"/>
	</g>
</g>
<g id="Balony_1">
	
		<radialGradient id="SVGID_1_" cx="756" cy="728.9347" r="38.589" gradientTransform="matrix(1 0 0 -1 0 0)" gradientUnits="userSpaceOnUse">
		<stop  offset="0" style="stop-color:#FCE26B"/>
		<stop  offset="0.97" style="stop-color:#F6507E"/>
	</radialGradient>
	<path class="st1" d="M711,702c3.78-1.31,20.11,7.6,20.28,12.84c0.05,1.64-0.82,3.14-1.72,4.54c-0.9,1.4-1.78,2.99-1.43,4.59
		c0.4,1.79,2.3,3,4.21,3.24c4.41,0.56,8.48-4.29,12.69-3.32c5.72,1.32,3.98,9.45,8.11,12.77c2.3,1.85,5.5,2.08,8.43,1.75
		c3.79-0.42,7.45-1.63,11.21-2.24c4.84-0.79,10.47-0.66,13.21,3.99c2.54,4.3-2.78,10.89,1.86,14.53c3.39,2.66,10.13,0.89,13.13-1.5"
		/>
	<radialGradient id="SVGID_2_" cx="391.5053" cy="731.0361" r="46.1345" gradientUnits="userSpaceOnUse">
		<stop  offset="0" style="stop-color:#47D5F7"/>
		<stop  offset="1" style="stop-color:#A082EB"/>
	</radialGradient>
	<path class="st2" d="M446.37,700.28c3.44,22.9-19.41,42.3-40.19,45.41c-13.83,2.07-28.46-2.02-39.21-10.95
		c-3.34-2.77-6.45-6.27-7.08-10.56c-1.03-7.03,5.32-13.43,12.24-15.04c6.31-1.47,13.75,0.49,17.24,5.95
		c3.64,5.7,2.12,13.3-0.86,19.38c-9.27,18.93-31.49,29.98-52.22,26.77"/>
	<path class="st3" d="M500.61,729c-4.96,39.68,10.51,37.57,27,90c17.08,54.3-36,81-36,108s9,45,9,45"/>
	
		<linearGradient id="SVGID_3_" gradientUnits="userSpaceOnUse" x1="425.0195" y1="383.1041" x2="452.0195" y2="383.1041" gradientTransform="matrix(0.9558 0.2941 -0.2353 0.7646 111.8081 -61.3652)">
		<stop  offset="0" style="stop-color:#FCE26B"/>
		<stop  offset="0.97" style="stop-color:#F6507E"/>
	</linearGradient>
	<polygon class="st4" points="448.41,381.7 422.61,373.76 441.8,342 450.4,344.65 	"/>
	<radialGradient id="SVGID_4_" cx="572.7891" cy="367.0779" r="46.2105" gradientUnits="userSpaceOnUse">
		<stop  offset="0" style="stop-color:#47D5F7"/>
		<stop  offset="0.9961" style="stop-color:#A082EB"/>
	</radialGradient>
	<path class="st5" d="M536.83,406.61c-6.04-7.32-11.31-15.32-12.97-24.83c-2.77-15.88,8.09-31.75,23.5-35.84
		c10.13-2.69,33.3-3.37,37.28,9.37c4.16,13.34-21.39,18.63-19.56,4.5c2.99-23.09,38.23-31.74,57.08-32.26"/>
	<path class="st3" d="M678.67,720c45,45-9,36-27,90s36,81,36,108s-9,45-9,45"/>
	<g>
		<path class="st6" d="M519.92,728.25c-4.97,2.12-12.31,4.64-21.51,5.76c-8.45,1.03-15.6,0.55-20.71-0.17
			c3.35-4.65,6.83-10.08,10.12-16.31c3.01-0.2,6.04-0.5,9.08-0.91c2.51-0.33,4.99-0.73,7.45-1.2
			C509.77,721.48,515.5,725.59,519.92,728.25z"/>
		
			<radialGradient id="SVGID_5_" cx="415.52" cy="467.3924" r="241.6896" gradientTransform="matrix(0.9913 -0.1315 0.1315 0.9913 -69.1178 77.4103)" gradientUnits="userSpaceOnUse">
			<stop  offset="0" style="stop-color:#47D5F7"/>
			<stop  offset="1" style="stop-color:#A082EB"/>
		</radialGradient>
		<path class="st7" d="M629.87,521.1c12.39,93.42-42.63,178.3-123.85,193.54c-2.46,0.47-4.94,0.87-7.45,1.2
			c-3.03,0.4-6.07,0.7-9.08,0.91c-81.77,5.47-156.13-61.88-168.44-154.69c-12.76-96.23,46.03-183.42,131.3-194.73
			C537.63,356.02,617.11,424.87,629.87,521.1z"/>
		
			<linearGradient id="SVGID_6_" gradientUnits="userSpaceOnUse" x1="477.6859" y1="690.9979" x2="476.154" y2="770.6575" gradientTransform="matrix(0.9913 -0.1315 0.1315 0.9913 -69.1178 77.4103)">
			<stop  offset="0.0982" style="stop-color:#47D5F7"/>
			<stop  offset="0.5377" style="stop-color:#A082EB"/>
		</linearGradient>
		<path class="st8" d="M519.92,728.25c-4.97,2.12-12.31,4.64-21.51,5.76c-8.45,1.03-15.6,0.55-20.71-0.17
			c3.35-4.65,6.83-10.08,10.12-16.31c3.01-0.2,6.04-0.5,9.08-0.91c2.51-0.33,4.99-0.73,7.45-1.2
			C509.77,721.48,515.5,725.59,519.92,728.25z"/>
		<linearGradient id="SVGID_7_" gradientUnits="userSpaceOnUse" x1="248.8864" y1="366.2885" x2="248.8864" y2="366.2885">
			<stop  offset="0.0982" style="stop-color:#47D5F7"/>
			<stop  offset="0.5377" style="stop-color:#A082EB"/>
		</linearGradient>
		<path class="st9" d="M248.89,366.29"/>
		<linearGradient id="SVGID_8_" gradientUnits="userSpaceOnUse" x1="612.3634" y1="636.2885" x2="612.3634" y2="636.2885">
			<stop  offset="0.0982" style="stop-color:#47D5F7"/>
			<stop  offset="0.5377" style="stop-color:#A082EB"/>
		</linearGradient>
		<path class="st10" d="M612.36,636.29"/>
		<path class="st11" d="M584.07,423.06c9.28,5.6,17.75,133.83-3.1,181.99c-20.23,46.72-50.62,97.5-149.95,101.59
			c95.13,32.78,150.49-29.03,165.97-49.24c5.47-7.15,23.22-30.32,32.78-95.13C635.77,470.68,584.07,423.06,584.07,423.06z"/>
		
			<ellipse transform="matrix(0.608 -0.7939 0.7939 0.608 -241.3939 511.0896)" class="st12" cx="396.89" cy="500.01" rx="9.66" ry="6.36"/>
		
			<ellipse transform="matrix(0.608 -0.7939 0.7939 0.608 -207.8134 500.4895)" class="st12" cx="402.94" cy="460.7" rx="22.5" ry="13.5"/>
		<path class="st13" d="M545.89,375.29"/>
		<path class="st12" d="M478.75,365.39c-90.4,2.91-136.83,63.54-155.32,129.54s21.3,160.59,50.43,174.89
			c-8.95-15.76-20.12-39.11-27.31-69.01c-5.63-23.42-13.76-57.23-4.09-99.32c0.65-2.83,14.46-59.76,59.54-98.68
			c7.26-6.27,17.52-15.12,33.32-22.58C454.06,371.39,478.75,365.39,478.75,365.39z"/>
		<path class="st13" d="M596.41,402.86"/>
		<path class="st14" d="M658.8,719.91c4.71,2.04,11.68,4.48,20.41,5.6c8.02,1.03,14.82,0.61,19.68-0.04
			c-3.15-4.44-6.44-9.62-9.53-15.56c-2.86-0.21-5.74-0.51-8.62-0.91c-2.38-0.33-4.74-0.72-7.07-1.18
			C668.48,713.53,663.01,717.41,658.8,719.91z"/>
		<path class="st6" d="M629.87,521.1c12.39,93.42-42.63,178.3-123.85,193.54c-2.46,0.47-4.94,0.87-7.45,1.2
			c-3.03,0.4-6.07,0.7-9.08,0.91c-81.77,5.47-156.13-61.88-168.44-154.69c-12.76-96.23,46.03-183.42,131.3-194.73
			C537.63,356.02,617.11,424.87,629.87,521.1z"/>
		
			<radialGradient id="SVGID_9_" cx="1083.037" cy="462.6106" r="250.4326" gradientTransform="matrix(-0.9905 -0.1373 -0.1373 0.9905 1901.1141 155.15)" gradientUnits="userSpaceOnUse">
			<stop  offset="0" style="stop-color:#FCE26B"/>
			<stop  offset="0.97" style="stop-color:#F6507E"/>
		</radialGradient>
		
			<radialGradient id="SVGID_10_" cx="1134.4795" cy="548.5098" r="159.9251" gradientTransform="matrix(-0.9905 -0.1373 -0.1373 0.9905 1901.1141 155.15)" gradientUnits="userSpaceOnUse">
			<stop  offset="0" style="stop-color:#47D5F7"/>
			<stop  offset="0.9961" style="stop-color:#A082EB"/>
		</radialGradient>
		<path class="st15" d="M555.45,522.43c-12.29,88.71,39.53,169.69,116.63,184.62c2.33,0.46,4.69,0.85,7.07,1.18
			c2.88,0.4,5.76,0.7,8.62,0.91c77.68,5.65,148.73-57.94,160.94-146.08c12.66-91.39-42.72-174.58-123.7-185.8
			C644.04,366.05,568.12,431.05,555.45,522.43z"/>
		
			<radialGradient id="SVGID_11_" cx="1132.8054" cy="724.2549" r="15.502" gradientTransform="matrix(-0.9905 -0.1373 -0.1373 0.9905 1901.1141 155.15)" gradientUnits="userSpaceOnUse">
			<stop  offset="0" style="stop-color:#FCE26B"/>
			<stop  offset="0.97" style="stop-color:#F6507E"/>
		</radialGradient>
		<path class="st16" d="M658.8,719.91c4.71,2.04,11.68,4.48,20.41,5.6c8.02,1.03,14.82,0.61,19.68-0.04
			c-3.15-4.44-6.44-9.62-9.53-15.56c-2.86-0.21-5.74-0.51-8.62-0.91c-2.38-0.33-4.74-0.72-7.07-1.18
			C668.48,713.53,663.01,717.41,658.8,719.91z"/>
		
			<ellipse transform="matrix(0.7975 -0.6034 0.6034 0.7975 -146.5336 570.8209)" class="st12" cx="777" cy="503.68" rx="6.05" ry="9.18"/>
		<path class="st11" d="M599.53,429.51c-8.85,5.27-17.61,127.09,1.94,172.97c18.96,44.51,47.57,92.94,141.94,97.39
			c-90.6,30.62-142.86-28.43-157.46-47.72c-5.16-6.82-21.9-28.94-30.62-90.6C550.13,474.48,599.53,429.51,599.53,429.51z"/>
		
			<ellipse transform="matrix(0.7975 -0.6034 0.6034 0.7975 -125.095 559.9077)" class="st12" cx="771.46" cy="466.29" rx="12.83" ry="21.38"/>
		<path class="st12" d="M699.94,375.29c85.9,3.27,129.69,61.15,146.89,123.98c17.2,62.83-21.13,152.51-48.9,165.93
			c8.59-14.93,19.34-37.06,26.34-65.43c5.48-22.23,13.39-54.32,4.44-94.37c-0.6-2.7-13.41-56.88-56.04-94.12
			c-6.87-6-16.56-14.47-31.54-21.64C723.37,381.13,699.94,375.29,699.94,375.29z"/>
		<path class="st17" d="M555.45,522.43c-12.29,88.71,39.53,169.69,116.63,184.62c2.33,0.46,4.69,0.85,7.07,1.18
			c2.88,0.4,5.76,0.7,8.62,0.91c77.68,5.65,148.73-57.94,160.94-146.08c12.66-91.39-42.72-174.58-123.7-185.8
			C644.04,366.05,568.12,431.05,555.45,522.43z"/>
	</g>
	
		<radialGradient id="SVGID_12_" cx="672.3747" cy="383.3814" r="0" gradientTransform="matrix(1 0 0 -1 0 0)" gradientUnits="userSpaceOnUse">
		<stop  offset="0" style="stop-color:#FCE26B"/>
		<stop  offset="0.97" style="stop-color:#F6507E"/>
	</radialGradient>
	<path class="st18" d="M672.37,383.38"/>
	
		<radialGradient id="SVGID_13_" cx="690.5807" cy="402.4184" r="0" gradientTransform="matrix(1 0 0 -1 0 0)" gradientUnits="userSpaceOnUse">
		<stop  offset="0" style="stop-color:#FCE26B"/>
		<stop  offset="0.97" style="stop-color:#F6507E"/>
	</radialGradient>
	<path class="st19" d="M690.58,402.42"/>
	<circle class="st20" cx="562.5" cy="742.5" r="4.5"/>
	<circle class="st20" cx="832.5" cy="697.5" r="4.5"/>
	<circle class="st20" cx="292.5" cy="661.5" r="4.5"/>
	<circle class="st20" cx="292.5" cy="382.5" r="4.5"/>
	<circle class="st20" cx="589.5" cy="310.5" r="4.5"/>
	<circle class="st20" cx="859.5" cy="337.5" r="4.5"/>
	<g>
		
			<linearGradient id="SVGID_14_" gradientUnits="userSpaceOnUse" x1="181.3273" y1="224.0477" x2="189.2115" y2="249.871" gradientTransform="matrix(0.1826 -0.9832 0.7866 0.1461 31.3733 575.9363)">
			<stop  offset="0" style="stop-color:#47D5F7"/>
			<stop  offset="1" style="stop-color:#A082EB"/>
		</linearGradient>
		<polygon class="st21" points="270,414.45 265.07,441 231.32,425.58 232.96,416.73 		"/>
		
			<linearGradient id="SVGID_15_" gradientUnits="userSpaceOnUse" x1="-120.2199" y1="717.4171" x2="-112.3357" y2="743.2404" gradientTransform="matrix(-0.0567 0.9984 -0.7987 -0.0454 1157.3363 938.502)">
			<stop  offset="0" style="stop-color:#47D5F7"/>
			<stop  offset="1" style="stop-color:#A082EB"/>
		</linearGradient>
		<polygon class="st22" points="564.1,805.44 565.63,778.49 601.06,789.51 600.55,798.5 		"/>
		
			<linearGradient id="SVGID_16_" gradientUnits="userSpaceOnUse" x1="-430.218" y1="341.4092" x2="-422.3338" y2="367.2325" gradientTransform="matrix(-0.7939 -0.608 0.4864 -0.6351 394.2757 466.6362)">
			<stop  offset="0" style="stop-color:#47D5F7"/>
			<stop  offset="1" style="stop-color:#A082EB"/>
		</linearGradient>
		<polygon class="st23" points="900.96,478.04 922.4,494.46 893.36,517.57 886.22,512.1 		"/>
	</g>
	
		<linearGradient id="SVGID_17_" gradientUnits="userSpaceOnUse" x1="748.3574" y1="309.5287" x2="775.3574" y2="309.5287" gradientTransform="matrix(0.5508 0.8346 -0.6677 0.4407 542.8923 -470.5836)">
		<stop  offset="0" style="stop-color:#FCE26B"/>
		<stop  offset="0.97" style="stop-color:#F6507E"/>
	</linearGradient>
	<polygon class="st24" points="748.3,322.85 733.43,300.32 768.43,288 773.39,295.51 	"/>
	
		<linearGradient id="SVGID_18_" gradientUnits="userSpaceOnUse" x1="380.6647" y1="940.5989" x2="407.6647" y2="940.5989" gradientTransform="matrix(0.4916 -0.8708 0.6967 0.3933 -453.1592 788.0046)">
		<stop  offset="0" style="stop-color:#FCE26B"/>
		<stop  offset="0.97" style="stop-color:#F6507E"/>
	</linearGradient>
	<polygon class="st25" points="418.2,811.76 404.93,835.28 378,809.74 382.42,801.9 	"/>
	
		<linearGradient id="SVGID_19_" gradientUnits="userSpaceOnUse" x1="843.6801" y1="982.0438" x2="851.2018" y2="1007.9749" gradientTransform="matrix(0.863 0.5052 -0.4041 0.6904 511.1522 -266.8418)">
		<stop  offset="0" style="stop-color:#FCE26B"/>
		<stop  offset="0.97" style="stop-color:#F6507E"/>
	</linearGradient>
	<polygon class="st26" points="848.44,864.03 825.14,850.39 851.1,823.86 858.86,828.41 	"/>
</g>
</svg>
