<?xml version="1.0" encoding="utf-8"?>
<!-- Generator: Adobe Illustrator 25.0.0, SVG Export Plug-In . SVG Version: 6.00 Build 0)  -->
<svg version="1.1" xmlns="http://www.w3.org/2000/svg" xmlns:xlink="http://www.w3.org/1999/xlink" x="0px" y="0px" width="1920px"
	 height="1080px" viewBox="0 0 1920 1080" style="enable-background:new 0 0 1920 1080;" xml:space="preserve">
<style type="text/css">
	.st0{fill:#CCBEF4;}
	.st1{fill:#FFFDF8;}
	.st2{fill:#FFC239;}
	.st3{fill:#ADA0F9;}
	.st4{fill:#D38A54;}
	.st5{fill:#FFE266;stroke:#240038;stroke-width:6.7453;stroke-linecap:round;stroke-linejoin:round;stroke-miterlimit:10;}
	.st6{fill:#9388FF;}
	.st7{fill:#FFAD1D;}
	.st8{fill:#F1EFE0;}
	.st9{fill:#AD6036;}
	.st10{fill:#FFE266;}
	.st11{fill:#FFFFFF;}
	.st12{fill:#D4D1BE;}
	.st13{fill:#240038;}
	.st14{fill:none;stroke:#240038;stroke-width:2.5426;stroke-linecap:round;stroke-linejoin:round;stroke-miterlimit:10;}
	.st15{fill:none;stroke:#240038;stroke-width:2;stroke-linecap:round;stroke-linejoin:round;stroke-miterlimit:10;}
	.st16{fill:none;stroke:#240038;stroke-width:1.9242;stroke-linecap:round;stroke-linejoin:round;stroke-miterlimit:10;}
	.st17{fill:none;stroke:#240038;stroke-width:1.6292;stroke-linecap:round;stroke-linejoin:round;stroke-miterlimit:10;}
	.st18{fill:none;stroke:#240038;stroke-width:4;stroke-linecap:round;stroke-linejoin:round;stroke-miterlimit:10;}
	.st19{fill:none;stroke:#240038;stroke-width:8;stroke-linecap:round;stroke-linejoin:round;stroke-miterlimit:10;}
	.st20{fill:none;stroke:#240038;stroke-width:5;stroke-linecap:round;stroke-linejoin:round;stroke-miterlimit:10;}
	.st21{fill:none;stroke:#240038;stroke-width:3;stroke-linecap:round;stroke-linejoin:round;stroke-miterlimit:10;}
	.st22{fill:none;stroke:#240038;stroke-width:9;stroke-linecap:round;stroke-linejoin:round;stroke-miterlimit:10;}
	.st23{fill:none;stroke:#240038;stroke-width:9.9449;stroke-linecap:round;stroke-linejoin:round;stroke-miterlimit:10;}
	.st24{fill:#F78F1E;stroke:#240038;stroke-width:7.5249;stroke-linecap:round;stroke-linejoin:round;stroke-miterlimit:10;}
	.st25{fill:#FFFFFF;stroke:#FFFFFF;stroke-width:5.25;stroke-linecap:round;stroke-linejoin:round;stroke-miterlimit:10;}
	.st26{fill:#FFFFFF;fill-opacity:0.16;}
</style>
<g id="tło">
	<rect y="0.71" class="st0" width="1920" height="1080"/>
</g>
<g id="Kolor">
	<path class="st1" d="M759.15,432.22l-10.52,66.9c0,0-38.12,33.44-36.53,67.02c-48.96,33.58-58.17,86.38-44.76,100.57
		c13.41,14.2,40.29,10.21,53.66-31.07c22.13,10.89,42.91-4.67,42.91-4.67s63.14,192.84,210.71,143.09
		c3.05-1.09,33.19-13.85,49.97-6.91s42.62,40.91,63.09,40.14c20.47-0.77,56.41-51.41,42.66-85.49c0.33,0.17-7.98-2.44-12,5.41
		c-4.02,7.85-10.65,30.51-21.18,21.89c-10.54-8.62-13.75-53.91-16.4-68.54c-2.65-14.63-34.03-26.39-44.18-25.75
		c-10.15,0.64-42.06,17.43-42.06,17.43s-9.81-31.72,0.46-60.03c19.81,25.81,37.85,7.09,37.85,7.09l24.17-15.32l10.21-45.54
		c0,0-98.72-28.19-72.37-127.04c-0.2-0.01-97.83-10.36-97.83-10.36l-135.31,2.81L759.15,432.22z"/>
	<path class="st1" d="M1103.81,572.08c-16.14-7-33.64-10.12-35.8,6.3c-2.16,16.41-8.11,30.91,3.29,35.54
		c-0.03-0.03-1.53,13.65-1.53,13.65l15.02,6.8c0,0,26.71-5.87,31.85-28.09C1121.77,584.06,1103.81,572.08,1103.81,572.08z"/>
	<path class="st2" d="M814.11,331.17l168.51,3.7c0,0,22.04,17.45,3.23,28.77s-181.23-2.4-181.85,3.82
		c-0.62,6.22-12.3-8.04-6.49-17.27S814.11,331.17,814.11,331.17z"/>
	<path class="st3" d="M985.68,366.79l-185.92,3.53l-27.6,17.66l-74.48,10.8c0,0-26.39-0.69-32.47-20.3
		c0.36,0.52-24.06,23.54,5.36,38.35c29.41,14.81,226.45,4.19,226.45,4.19l108.58,12.9c0,0,81.9,0.71,95.14-10.46
		s33.77-35.1,15.4-45.64c-0.25-0.23-51.99,20.95-51.99,20.95s-36.08-4.42-50.38-13.36C999.47,376.49,985.68,366.79,985.68,366.79z"
		/>
	<path class="st3" d="M835.16,301.95c0,0,33.92-80.1,122.09-100.27c60.94,19.32,49.17,22.15,57.73,51.27
		c8.56,29.12-2.24,39.87,26.01,8.38c21.79,1.53,15.98,21.29,18.23,22.3c18.2-9.19,13.04-14.7,22.94-23.52
		c6.49,18.76-11.03,54.3-19.97,52.36c-8.94-1.94-4.86-8.07-11.32-13.86c-6.47-5.79-23.69,18.02-30.91,17.18
		c-7.22-0.84-9.53,8.74-27.61-4.73c-7.09,17.33-9.73,21.93-9.73,21.93l-168.51-1.83L835.16,301.95z"/>
	<path class="st4" d="M1079.05,530.39c4.5,5.17,17.21,4.83,17.21,4.83l-8.5,29.25c0,0-39.31,17.65-14.44,54.12
		c0.7,1.4-9.18,26.5-9.18,26.5s-14.81,19.26-14.18-8.89C1050.6,608.03,1079.05,530.39,1079.05,530.39z"/>
	<path class="st5" d="M1142.6,506.8c-1.28,4.79-5.72,7.92-10.57,7.82c-0.88-0.02-1.77-0.14-2.66-0.38l-68.03-18.16
		c-0.89-0.24-1.72-0.58-2.5-1c-4.25-2.34-6.55-7.26-5.27-12.05c1.28-4.79,5.72-7.9,10.57-7.82c0.88,0.02,1.78,0.14,2.66,0.38
		l68.03,18.16c0.89,0.24,1.72,0.58,2.5,1C1141.59,497.09,1143.88,502.01,1142.6,506.8z"/>
</g>
<g id="Cienie">
	<path class="st6" d="M955.21,364.49c0,0,7.15,31.49-24.85,58.73c0,0,43.91,13.26,69.79,10.71s74.12,1.54,87.61-7.82
		s47.19-20.59,28.13-48.51c0,0-22.47,23.63-51.75,20.66c-29.27-2.97-55.68-13.72-74.81-31.15l-32.08-2.63"/>
	<path class="st6" d="M972.91,264.91c0,0-7.49,53.53-24.85,66.26l33.02,3.7l11.27-21.61L972.91,264.91z"/>
	<path class="st6" d="M979.38,271.04c0,0,29.28,34.04,54.47,31.66l-12.91,12.65C1020.94,315.35,985.51,327.21,979.38,271.04z"/>
	<path class="st6" d="M1057,276.67c0,0-3.74,18.54-8.51,18.88l8.51,15.78c0,0,26.92,0.22,28.78-49.99l-25.04,23.32L1057,276.67z"/>
	<path class="st7" d="M943.21,331.81c0,0,10.81,20.26,0,31.83h42.64c0,0,11.91-10.56,0-28.77L943.21,331.81z"/>
	<path class="st8" d="M754.25,596.51c0,0-24.4-16.02-61.67,49.85c0,0-21.06,12.75-33.51-3.84c0,0,0.28,47.63,39.62,25.73
		l23.69-33.85l14.99,6.94l21.61-6.94L754.25,596.51z"/>
	<path class="st8" d="M1065.43,585.49c0,0,11.91,25.64,45.1,22.32c0,0-7.98,38.04-38.46,21.19l2.46-14.55
		C1074.53,614.45,1057.23,600.24,1065.43,585.49z"/>
	<path class="st8" d="M819.72,736.23c0,0,105.19,52.59,145.54,0c14.3-20.93-2.55-63.32-15.32-83.23c-12.37-19.29,3.78-70.7,64-60.89
		c2.72,0.44,5.52,0.57,8.17,1.31c9.53,2.66,23.46-12.36,39.32-9.87l-6.13,25.84l-37.11,18.16l-25.26-12.22l0.41,60.81
		c0,0,33.7-32.8,68.09-11.29c0,0-12.41,71.21-32.08,79.38l-56.48,31.55c0,0-68.07,23.19-107.15-4.63S819.72,736.23,819.72,736.23z"
		/>
	<path class="st8" d="M1007.1,758.19c0,0,18.12-23.31,18.58-13.28c0.31,6.77,29.83,28.43,46.44,35.04c3.38,1.34,7.04,1.9,10.64,1.41
		c20.61-2.82,46-27.94,46-27.94s-8.09,43-31.11,49.07c-23.02,6.08-43-4.63-50.7-24.54c-7.7-19.91-49.25-8.88-49.25-8.88
		L1007.1,758.19z"/>
	<path class="st9" d="M1090.31,550.6c0,0-10.48-6.95-18.23,6.91c-7.76,13.86-12.03,31.88-12.03,31.88l-4.12,24.52
		c0,0,0.38,22.05,13.45,17.42l4.76-14.52c0,0-23.86-32.75,11.89-51.39L1090.31,550.6z"/>
	<path class="st2" d="M1140.57,528.74"/>
	<path class="st2" d="M1114.55,488.05c0,0-1.42,16.87-14.53,17.04l25.8,7.92c0,0,25.07,0.69,12.74-16.3L1114.55,488.05z"/>
	<ellipse class="st8" cx="868.61" cy="558.63" rx="10.59" ry="2.54"/>
	<path class="st0" d="M948.84,202.31c0,0-84.86,30.26-112.44,101.92c0,0-19.78,12.21-20.1,23.9l12.27,3.04l12.94-22.03
		c0,0,42.41-70.73,107.33-105.31S948.84,202.31,948.84,202.31z"/>
	<path class="st0" d="M804,367.46l22.53,0.57c0,0-27.22,31.01-64.33,34.07s-83.08,16-100.44-14.98c0,0-8.16-12.6,27.58,9.19
		l75.57-5.45L804,367.46z"/>
	<path class="st10" d="M830.81,333c0,0-18.57,27.05-7,34.46H804c0,0-19.34-17.36,10.1-38.25c29.45-20.89,0.18,1.71,0.18,1.71
		L830.81,333z"/>
	
		<ellipse transform="matrix(0.9942 -0.1072 0.1072 0.9942 -32.3525 92.8454)" class="st10" cx="847.18" cy="347.27" rx="14.46" ry="2.99"/>
	
		<ellipse transform="matrix(0.2181 -0.9759 0.9759 0.2181 362.7324 1427.2953)" class="st11" cx="1072.08" cy="487.28" rx="2.12" ry="7.24"/>
	<path class="st12" d="M972.15,613.43c0,0-2.55,49.53,20.68,64.34l-1.28-64.34H972.15z"/>
	<path class="st12" d="M1024.49,747.3c0,0,7.18,15.71-3.73,21.3h-21.05L1024.49,747.3z"/>
	<path class="st12" d="M757.99,616.04c0,0-20.23,22.66-30.06,18.83c0,0,24.26,11.16,34.57-1.18l-4.6-18.04"/>
	<path class="st12" d="M1081.81,616.07c0,0,12.86,10.49,21.83,6.04c0,0-24.38,18.21-33.83,5.83
		C1069.81,627.94,1071.85,611.85,1081.81,616.07z"/>
	<ellipse class="st13" cx="916.1" cy="859.43" rx="200.04" ry="17.23"/>
	<path class="st12" d="M757.44,433.93c0,0,64.57,5.11,111.17,3.58s117.41,9.43,120.72,6.43c3.31-2.99,1.81-10.97,1.81-10.97
		l-122.53-11.95l-108.13,3.06L757.44,433.93z"/>
	<path class="st14" d="M1050.43,675.24c-1.99-5.17-8.34-7.54-14.2-5.29"/>
	<path class="st14" d="M1037.67,673.69c3.51-1.35,7.33,0.07,8.52,3.18"/>
	<path class="st15" d="M735.42,540.71c-0.77,0.6-1.71,1.49-2.57,2.73c-1.87,2.69-2.25,5.42-2.34,6.73"/>
	<path class="st15" d="M738.19,542.8c-0.53,0.28-1.17,0.72-1.7,1.38c-1.15,1.44-1.12,3.09-1.04,3.88"/>
	<path class="st16" d="M1012.3,610.96c0.75,0.39,1.75,0.79,2.95,0.88c2.59,0.21,4.49-1.11,5.36-1.83"/>
	<path class="st17" d="M1012.54,607.9c0.44,0.22,1.05,0.44,1.76,0.49c1.55,0.11,2.69-0.65,3.21-1.05"/>
	<path class="st18" d="M755.89,652.49c2.57,7.53,8.98,29.28,17.36,39.32"/>
	<path class="st18" d="M780.4,705.09"/>
	<path class="st19" d="M780.4,706.36"/>
	<path class="st19" d="M780.4,704.06c0,0.35,0.1,0.32,0.1,0.32S780.4,704.42,780.4,704.06"/>
	<path class="st18" d="M1001,460.15c0,0-2.04,22.47,7.32,36.09"/>
	<circle class="st20" cx="1015.13" cy="505.26" r="0.26"/>
	<circle class="st21" cx="1135.72" cy="390.79" r="0.26"/>
	<path class="st21" d="M1133.4,403.81c0,0-4.06,16.51-16.14,20.09"/>
	<circle class="st21" cx="1122.45" cy="797.6" r="0.26"/>
	<path class="st21" d="M1144.32,760.06c0,0-4.24,18.72-12.25,26.38"/>
</g>
<g id="Linie">
	<path class="st22" d="M1063.47,431.38c-52.09,6.81-111.66-1.7-141.28-6.15c-29.62-4.46-74.9-3.16-94.98-2.7
		c-20.71,0.48-115.4,3.07-122.21,1.7c0,0-71.83-1.02-40.85-47.32c24.51,37.45,58.21,14.98,90.21,13.96S801,368.74,801,368.74
		l6.17-0.17l178.68-4.93c0,0,61.62,67.74,130.04,13.96C1137,397,1115.55,424.57,1063.47,431.38z"/>
	<path class="st22" d="M985.85,363.64l-178.68,4.93l-5.83-2.04c-0.89-1.85-4.21-9.36-1.53-18.38c3.36-11.29,13.4-15.74,14.81-16.34
		c56,1.02,112,2.04,168,3.06c5.59,2.72,9.31,8.19,9.7,14.3C992.88,357.83,986.45,363.16,985.85,363.64z"/>
	<g>
		<path class="st13" d="M809.17,328.95c1.11-1.93,1.95-4.16,3.16-6.83c0.61-1.32,1.33-2.71,2.2-4.04c0.85-1.32,1.92-2.63,2.91-3.68
			c3.99-4.33,8.86-7.81,14.23-10.19l0.01,0c0.56-0.26,1.15-0.38,1.72-0.39l0.11,0c4.21-0.02,8.43,0.06,12.64,0.23
			c4.21,0.16,8.43,0.4,12.64,0.68c4.21,0.27,8.43,0.63,12.64,1.05c4.21,0.44,8.43,0.94,12.64,1.65c0.49,0.08,0.83,0.55,0.74,1.04
			c-0.07,0.39-0.37,0.68-0.74,0.74c-4.21,0.71-8.43,1.21-12.64,1.65c-4.21,0.42-8.43,0.78-12.64,1.05
			c-4.21,0.28-8.43,0.53-12.64,0.68c-4.21,0.17-8.43,0.25-12.64,0.23l1.83-0.39l-0.01,0c-4.26,1.89-8.13,4.66-11.28,8.08
			c-1.56,1.65-2.56,3.23-3.56,5.4c-0.98,2.12-1.99,4.84-3.5,7.49l-0.03,0.05c-1.23,2.16-3.98,2.9-6.14,1.67
			c-2.16-1.23-2.9-3.98-1.67-6.14L809.17,328.95z"/>
	</g>
	<path class="st22" d="M972.91,264.91"/>
	<path class="st22" d="M1045.94,300.66"/>
	<path class="st22" d="M1071.47,308.32"/>
	<path class="st22" d="M1084.23,261.34"/>
	<path class="st22" d="M834.53,304.23c10.73-42.38,80.68-96,112.34-101.61c31.66-5.62,64.85,14.29,68.43,53.1
		c3.57,38.81,5.1,30.64,22.98,9.19c0,0,10.14-10.73,20.95,16.97"/>
	<line class="st22" x1="993.14" y1="309.14" x2="982.62" y2="334.87"/>
	<g>
		<path class="st13" d="M1054.06,291.77c1.12-2.51,2.49-4.76,3.94-6.91c1.45-2.16,3.03-4.18,4.67-6.15
			c3.35-3.87,6.69-7.75,9.84-11.75c1.57-2,3.13-4,4.61-6.05l1.11-1.53c0.41-0.57,0.91-1.24,1.53-1.9c0.32-0.33,0.68-0.68,1.17-1.05
			c0.49-0.35,1.1-0.78,2.19-1.04c0.55-0.12,1.24-0.18,1.97-0.03c0.74,0.14,1.43,0.49,1.92,0.88c1,0.8,1.37,1.56,1.66,2.14
			c0.52,1.19,0.65,2.05,0.79,2.89c0.12,0.83,0.17,1.59,0.19,2.34c0.04,1.48-0.02,2.89-0.12,4.28c-0.22,2.77-0.62,5.44-1.13,8.09
			c-1.03,5.29-2.46,10.47-4.35,15.54c-1.92,5.06-4.24,10.04-7.57,14.72c-1.68,2.32-3.63,4.58-6.11,6.54
			c-1.21,0.92-2.34,1.72-3.71,2.51c-1.38,0.76-2.87,1.55-5.06,1.95c-1.09,0.18-2.44,0.23-3.88-0.18c-1.44-0.4-2.78-1.3-3.63-2.22
			c-0.89-0.94-1.42-1.85-1.85-2.67c-0.42-0.83-0.72-1.59-0.98-2.3c-0.51-1.42-0.87-2.67-1.25-3.75c-0.37-1.08-0.77-1.99-1.1-2.48
			c-0.16-0.24-0.29-0.35-0.33-0.38c-0.04-0.03,0,0.02-0.02,0c-0.01-0.02-0.57-0.05-1.35,0.18c-0.43,0.12-1.33,0.57-2.23,1.15
			c-0.92,0.58-1.89,1.28-2.87,2.02c-3.95,2.97-8.05,6.43-12.69,9.4c-2.32,1.49-4.77,2.9-7.45,4.07c-2.66,1.17-5.57,2.11-8.69,2.52
			c-3.11,0.42-6.44,0.25-9.57-0.65c-3.12-0.91-5.98-2.44-8.39-4.31c-4.86-3.75-8.21-8.45-11.03-13.18
			c-2.76-4.78-4.93-9.73-6.8-14.72c-1.87-5-3.45-10.04-4.85-15.12c-1.51-5.03-2.49-10.25-0.18-16.08c0.11-0.28,0.44-0.42,0.72-0.31
			c0.06,0.03,0.12,0.06,0.17,0.11c4.62,4.23,6.15,9.04,7.48,13.93c1.45,4.85,3.05,9.64,4.9,14.28c1.83,4.65,3.97,9.12,6.41,13.26
			c2.48,4.09,5.38,7.86,8.78,10.39c3.4,2.56,7.1,3.59,11.11,3.04c4.02-0.53,8.22-2.59,12.24-5.2c4.06-2.62,7.93-5.76,12.24-8.98
			c1.09-0.8,2.22-1.61,3.49-2.4c1.29-0.78,2.66-1.61,4.72-2.21c1.7-0.44,3.8-0.81,6.3-0.14c1.22,0.33,2.44,0.97,3.39,1.77
			c0.96,0.79,1.67,1.69,2.21,2.53c1.06,1.7,1.58,3.22,2.04,4.58c0.44,1.36,0.78,2.6,1.13,3.62c0.32,1.01,0.77,1.8,0.81,1.81
			c0.02,0.02-0.19-0.15-0.39-0.19c-0.2-0.05-0.22-0.01-0.04-0.03c0.36-0.03,1.25-0.37,2.12-0.85c0.87-0.48,1.88-1.15,2.74-1.77
			c1.62-1.19,3.15-2.82,4.53-4.65c2.77-3.68,5-8.07,6.85-12.61c1.85-4.55,3.34-9.32,4.43-14.13c0.54-2.41,0.98-4.83,1.24-7.21
			c0.13-1.18,0.21-2.36,0.21-3.46c0-0.55-0.02-1.07-0.07-1.53c-0.04-0.44-0.15-0.85-0.15-0.85c0.02,0,0.05,0.19,0.53,0.59
			c0.24,0.19,0.63,0.39,1.05,0.47c0.41,0.08,0.78,0.05,1.01-0.01c0.46-0.12,0.5-0.22,0.47-0.19c-0.03,0.02-0.15,0.11-0.28,0.24
			c-0.28,0.27-0.57,0.62-0.93,1.09l-1.21,1.57c-1.61,2.1-3.28,4.12-4.96,6.13c-3.38,4-6.84,7.91-10.43,11.68
			c-1.82,1.86-3.76,3.61-5.85,5.21c-2.09,1.6-4.3,3.07-6.82,4.23c-0.23,0.1-0.49,0-0.6-0.22
			C1054.01,292.02,1054.01,291.88,1054.06,291.77z"/>
	</g>
	<g>
		<path class="st13" d="M766.5,631.36c9.43,28.97,22.65,56.72,40.63,81.07c2.2,3.08,4.57,6.01,6.9,8.99
			c2.43,2.89,4.81,5.82,7.37,8.59c5.07,5.58,10.36,10.87,16.02,15.76c0.7,0.62,1.37,1.27,2.1,1.86l2.2,1.73l4.4,3.46
			c0.37,0.29,0.73,0.58,1.1,0.86l1.15,0.79l2.31,1.57c1.54,1.04,3.06,2.11,4.62,3.14l4.81,2.82c1.6,0.94,3.18,1.92,4.87,2.69
			l4.98,2.47l1.25,0.62l1.29,0.53l2.57,1.06l2.57,1.06c0.86,0.35,1.7,0.74,2.59,1l5.27,1.76c1.74,0.65,3.54,1.08,5.33,1.55
			c1.8,0.45,3.57,0.99,5.38,1.38c3.65,0.66,7.26,1.53,10.96,1.89l2.76,0.35c0.92,0.11,1.84,0.26,2.77,0.29l5.56,0.35
			c7.42,0.24,14.89,0.12,22.3-0.88c7.4-0.9,14.77-2.29,21.99-4.3l2.71-0.73c0.9-0.25,1.79-0.56,2.68-0.84
			c1.78-0.58,3.58-1.11,5.35-1.74l5.28-1.96c1.77-0.64,3.47-1.44,5.21-2.15c6.89-2.98,13.63-6.35,20.03-10.28
			c6.41-3.91,12.52-8.29,18.21-13.1c0.71-0.6,1.45-1.17,2.18-1.75c0.69-0.62,1.42-1.2,2.14-1.79c0.71-0.61,1.48-1.15,2.2-1.75
			c0.71-0.6,1.43-1.2,2.17-1.78c1.51-1.15,2.93-2.37,4.46-3.55c0.38-0.3,0.78-0.58,1.16-0.88c0.37-0.31,0.74-0.62,1.13-0.92
			c0.77-0.61,1.57-1.21,2.43-1.79l0.03-0.02c0.26-0.18,0.61-0.11,0.79,0.15c0.09,0.14,0.12,0.31,0.08,0.46
			c-1.02,3.99-2.89,7.71-5.18,11.02c-0.57,0.83-1.17,1.65-1.77,2.47c-0.63,0.79-1.28,1.55-1.95,2.3c-0.67,0.75-1.33,1.51-2.03,2.24
			c-0.71,0.7-1.43,1.4-2.18,2.07c-5.94,5.36-12.4,10.06-19.1,14.34c-6.71,4.27-13.76,7.96-20.99,11.24
			c-1.82,0.78-3.61,1.66-5.47,2.37l-5.55,2.17c-1.86,0.69-3.76,1.29-5.64,1.94c-0.94,0.31-1.88,0.66-2.83,0.94l-2.87,0.82
			l-2.87,0.82c-0.96,0.28-1.92,0.55-2.89,0.76l-5.82,1.36c-1.95,0.43-3.93,0.72-5.89,1.08l-2.95,0.52l-2.97,0.37
			c-7.92,1.13-15.95,1.36-23.97,1.18l-6.01-0.32c-1-0.03-2-0.17-3-0.28l-2.99-0.35c-4.01-0.35-7.94-1.24-11.9-1.93
			c-7.83-1.8-15.62-3.98-23.01-7.18l-2.79-1.15l-1.39-0.57l-1.35-0.67l-5.41-2.67c-1.83-0.84-3.54-1.89-5.28-2.9l-5.2-3.03
			c-1.68-1.1-3.32-2.24-4.98-3.36l-2.49-1.69l-1.24-0.85c-0.4-0.29-0.79-0.61-1.19-0.92l-4.72-3.7l-2.36-1.85
			c-0.78-0.63-1.5-1.32-2.25-1.98l-4.45-4c-0.73-0.68-1.5-1.32-2.2-2.02l-2.09-2.14c-2.75-2.87-5.64-5.64-8.19-8.65
			c-2.67-2.92-5.15-6-7.68-9.04c-2.42-3.12-4.89-6.21-7.17-9.44c-18.51-25.64-31.91-54.63-40.62-84.71
			c-0.69-2.39,0.68-4.88,3.07-5.57C763.31,627.75,765.75,629.06,766.5,631.36z"/>
	</g>
	<path class="st22" d="M760.48,424.08c-6.92,20.53-11.89,47.12-13.56,76.75"/>
	<path class="st22" d="M1085.7,564.46c19.12,5.8,25.07,11.32,29.68,21.65c6.31,14.11-11.91,57.02-39.49,44.76"/>
	<path class="st22" d="M992.32,437.51c-14.3,51.58,24.69,110.45,74.55,122.04c0.85,0.2,1.69,0.39,2.5,0.59"/>
	<g>
		<path class="st13" d="M965.26,618.79c0.13-0.62,0.29-1.21,0.5-1.78c0.19-0.58,0.41-1.15,0.65-1.69c0.54-1.05,1.12-2.08,1.82-3.04
			c0.74-0.92,1.47-1.87,2.41-2.65c0.46-0.39,0.89-0.83,1.4-1.18c0.51-0.35,1.03-0.7,1.57-1.03c2.2-1.27,4.81-2.08,7.58-2.33
			c2.77-0.26,5.65,0.15,8.2,1.01c2.55,0.87,4.78,2.12,6.78,3.44c2,1.32,3.78,2.72,5.44,4.1c1.67,1.37,3.24,2.7,4.77,3.88
			c1.51,1.19,2.99,2.23,4.38,2.97c1.4,0.73,2.65,1.16,3.79,1.26c0.21,0.06,0.77,0.04,1.19,0.05l1.34,0.03
			c0.47,0.04,0.85-0.02,1.27-0.04l1.23-0.07c1.5-0.24,2.77-0.54,3.91-1.14c1.16-0.63,2.5-1.71,4.09-3.04l1.22-1.03l1.32-1.07
			c0.86-0.71,1.86-1.39,2.79-2.07c0.97-0.65,1.98-1.28,2.97-1.9l3.08-1.68c4.19-2.03,8.47-3.41,12.76-4.49
			c2.41-0.61,4.86,0.85,5.47,3.26c0.55,2.18-0.59,4.39-2.59,5.24l-0.18,0.08c-3.67,1.57-7.28,3.12-10.51,5.07l-2.36,1.5
			c-0.75,0.55-1.5,1.08-2.23,1.64c-0.72,0.61-1.43,1.15-2.16,1.82l-1.09,0.96l-1.15,1.05c-1.57,1.42-3.43,3.1-5.93,4.56
			c-0.65,0.33-1.3,0.65-1.96,0.96c-0.66,0.31-1.36,0.49-2.04,0.73c-0.34,0.11-0.69,0.22-1.03,0.32l-1.01,0.2
			c-0.67,0.12-1.35,0.26-2.02,0.35l-1.91,0.14c-0.63,0.04-1.29,0.1-1.88,0.07l-1.8-0.05c-0.63-0.03-1.12-0.01-1.95-0.12
			c-3.04-0.33-5.8-1.41-8.06-2.71c-4.55-2.63-7.7-5.8-10.75-8.52c-3.02-2.73-5.87-5.14-8.67-6.31c-1.39-0.6-2.74-0.91-4.16-0.91
			c-1.42-0.01-2.9,0.38-4.54,0.79c-1.64,0.45-3.43,1.04-5.38,1.65c-0.99,0.29-1.98,0.65-3.08,0.92
			C967.66,618.3,966.53,618.59,965.26,618.79z"/>
	</g>
	<g>
		<path class="st13" d="M1007.06,700.57c-1.87-0.75-3.59-1.66-5.27-2.75c-1.66-1.1-3.26-2.43-4.65-3.98
			c-1.4-1.55-2.52-3.32-3.4-5.16c-0.87-1.83-1.65-3.7-2.28-5.57c-2.56-7.44-4.06-15.04-4.97-22.72c-0.88-7.68-0.97-15.39-0.64-23.06
			c0.4-7.66,1.31-15.27,2.65-22.79c0.44-2.45,2.77-4.08,5.22-3.64c2.45,0.44,4.08,2.77,3.64,5.22l0,0l0,0.01
			c-1.28,7.2-2.22,14.45-2.74,21.71c-0.22,3.63-0.39,7.26-0.36,10.89c0.03,3.63,0.16,7.25,0.44,10.85
			c0.6,7.18,1.78,14.38,3.87,21.16c0.5,1.7,1.13,3.3,1.78,4.88c0.68,1.56,1.38,3.06,2.08,4.61c0.7,1.55,1.51,3.1,2.41,4.71
			c0.88,1.63,1.88,3.28,2.7,5.13c0.08,0.19,0,0.4-0.19,0.49C1007.25,700.6,1007.15,700.6,1007.06,700.57z"/>
	</g>
	<path class="st22" d="M994.19,675.64c31.15-37.45,77.79-11.91,85.96,9.02c8.17,20.94,0,56.68,12.77,64.85
		c12.77,8.17,16.6-12.26,27.57-23.49c24.26-17.62,5.62,52.09-12.26,69.96c-17.87,17.87-48.51,9.7-64.85-15.83
		c-16.34-25.53-78.13-1.95-78.13-1.95"/>
	<g>
		<path class="st13" d="M752.51,580.59c2.04,8.63,4.06,17.24,6.3,25.77c1.12,4.26,2.29,8.5,3.55,12.69
			c1.26,4.18,2.62,8.32,4.14,12.31c0.72,1.87-0.02,3.95-1.67,4.97l-0.53,0.33l0,0c-2.9,1.54-5.82,3.16-8.92,4.71
			c-3.1,1.54-6.35,3.06-10.17,4.05c-1.92,0.47-4.01,0.79-6.28,0.67c-2.25-0.11-4.65-0.76-6.71-1.92c-0.5-0.3-1.01-0.6-1.47-0.94
			l-0.68-0.51l-0.52-0.42l-1.97-1.64c-1.21-1.03-2.45-1.99-3.04-2.24c-0.3-0.13-0.24-0.06-0.05-0.08c0.18-0.02,0.16-0.08-0.11,0.12
			c-0.54,0.37-1.44,1.44-2.21,2.6c-1.59,2.38-3.04,5.26-4.39,8.16c-0.68,1.46-1.34,2.94-1.99,4.43l-0.48,1.12l-0.53,1.22
			c-0.38,0.87-0.81,1.71-1.26,2.54c-1.8,3.33-4.12,6.37-6.82,8.99c-5.4,5.25-12.27,8.91-19.75,10.33c-3.74,0.7-7.65,0.82-11.54,0.13
			c-3.88-0.67-7.74-2.23-11.02-4.71c-3.29-2.47-5.86-5.85-7.5-9.47c-1.65-3.64-2.44-7.46-2.72-11.19c-0.14-1.86-0.13-3.72-0.04-5.53
			c0.12-1.79,0.24-3.57,0.5-5.34c0.48-3.54,1.21-7.04,2.25-10.43c2.01-6.81,5.03-13.2,8.57-19.19c3.58-5.96,7.68-11.54,12.11-16.76
			c4.41-5.23,9.15-10.13,13.95-14.84c2.38-2.35,4.82-4.67,7.03-6.93c0.27-0.28,0.56-0.57,0.8-0.84l0.38-0.41l0.19-0.21l0.12-0.15
			c0.32-0.38,0.68-0.9,1.04-1.47c0.7-1.16,1.38-2.52,2.02-3.94c2.55-5.73,4.71-12.1,7.09-18.34c2.37-6.28,4.9-12.59,7.89-18.76
			c2.99-6.17,6.43-12.23,10.71-17.86c4.27-5.6,9.47-10.79,15.76-14.63l0,0l0.31-0.19c2.02-1.25,4.68-0.62,5.93,1.41
			c0.55,0.9,0.74,1.92,0.59,2.89c-0.49,3.36-0.78,6.8-1,10.27c-0.2,3.47-0.27,6.98-0.24,10.5c0.06,7.05,0.46,14.15,0.77,21.29
			c0.01,0.23-0.17,0.43-0.4,0.44c-0.2,0.01-0.37-0.12-0.42-0.3c-2.02-6.87-3.75-13.82-5.11-20.91c-1.36-7.09-2.42-14.33-2.59-21.79
			l6.83,4.1l0,0c-5.09,3.1-9.51,7.44-13.28,12.4c-3.78,4.97-6.96,10.53-9.77,16.32c-2.81,5.8-5.25,11.85-7.57,18.02l-3.48,9.34
			c-1.18,3.14-2.38,6.31-3.83,9.53c-0.73,1.61-1.53,3.24-2.55,4.93c-0.52,0.84-1.1,1.71-1.85,2.59l-0.28,0.33l-0.23,0.25l-0.46,0.5
			c-0.31,0.34-0.61,0.65-0.92,0.96c-2.44,2.5-4.83,4.75-7.18,7.08c-4.7,4.61-9.22,9.29-13.39,14.23
			c-8.32,9.83-15.37,20.76-18.93,32.7c-0.92,2.97-1.54,6-1.96,9.05c-0.23,1.52-0.33,3.06-0.43,4.59c-0.07,1.51-0.08,2.99,0.03,4.44
			c0.22,2.9,0.82,5.68,1.93,8.11c1.11,2.43,2.7,4.49,4.74,6.03c4.06,3.11,9.89,3.99,15.48,2.92c5.61-1.05,10.99-3.89,15.11-7.92
			c2.07-2.01,3.82-4.33,5.19-6.85c0.34-0.63,0.67-1.27,0.95-1.93l0.47-1.06l0.5-1.17c0.67-1.56,1.37-3.11,2.09-4.67
			c1.47-3.12,2.99-6.22,5.08-9.38c0.53-0.79,1.11-1.59,1.8-2.4c0.69-0.81,1.48-1.64,2.57-2.44c1.07-0.79,2.59-1.59,4.43-1.8
			c1.85-0.21,3.59,0.28,4.79,0.85c1.23,0.57,2.14,1.21,2.93,1.8c0.8,0.6,1.48,1.17,2.14,1.72l1.86,1.55l0.45,0.36l0.32,0.23
			c0.2,0.16,0.42,0.27,0.63,0.41c0.85,0.47,1.73,0.72,2.8,0.78c1.06,0.06,2.3-0.1,3.61-0.42c2.63-0.66,5.47-1.93,8.32-3.36
			c2.85-1.43,5.75-3.03,8.73-4.61l0,0l-2.19,5.3c-1.05-4.47-1.86-8.91-2.58-13.34c-0.71-4.43-1.31-8.86-1.86-13.28
			c-1.09-8.84-1.94-17.67-2.8-26.49c-0.05-0.51,0.32-0.97,0.84-1.02C751.98,579.83,752.4,580.14,752.51,580.59z"/>
	</g>
	<path class="st23" d="M1094.66,534.3l-5.9,22.11l-2.21,8.28l-0.3,1.15c-22.02-0.29-29.32,37.08-13.24,49.58l-6.71,25.12
		c-1.48,5.55-5.98,9.17-10.06,8.08l-1.58-0.42c-4.07-1.09-6.17-6.47-4.69-12.02l20.29-75.97l2.17-8.12l5.91-22.13
		c2.42,1.49,5.03,2.62,7.84,3.37C1088.98,534.08,1091.82,534.4,1094.66,534.3z"/>
	<path class="st24" d="M1137.33,494.75c-0.77-0.42-1.61-0.76-2.5-1l-68.03-18.16c-0.89-0.24-1.78-0.36-2.66-0.38
		c8.62-14.45,26.38-22,43.83-17.34C1125.41,462.53,1137.06,477.93,1137.33,494.75z"/>
	<path class="st24" d="M1132.02,514.62c-7.24,12.12-20.92,19.39-35.44,18.65c-2.78-0.13-5.59-0.57-8.4-1.32
		c-2.81-0.75-5.45-1.77-7.93-3.03c-12.95-6.61-21.19-19.72-21.42-33.84c0.77,0.42,1.61,0.76,2.5,1l68.03,18.16
		C1130.25,514.48,1131.15,514.6,1132.02,514.62z"/>
	<g>
		<path class="st13" d="M1084.86,618.65c-2.14,0.38-4.39,0.51-6.69,0.26c-2.29-0.25-4.62-0.89-6.81-1.93l-0.22-0.11
			c-1.85-0.88-2.64-3.09-1.76-4.94c0.88-1.85,3.09-2.64,4.94-1.76c0.35,0.17,0.68,0.4,0.95,0.65c2.37,2.23,5.7,3.67,9.43,4.1l0.04,0
			c1.03,0.12,1.77,1.05,1.66,2.08C1086.31,617.86,1085.66,618.51,1084.86,618.65z"/>
	</g>
	<path class="st22" d="M1087.76,566.35c2.36,0.02,4.89,0.49,7.57,1.46c0.04,0.01,0.08,0.03,0.12,0.04"/>
	<path class="st13" d="M842.87,477.34c0,4.81-1.66,9.23-4.44,12.71c-4.2-4.15-9.98-6.71-16.35-6.71c-6.16,0-11.77,2.39-15.93,6.31
		c-2.59-3.42-4.13-7.69-4.13-12.31c0-11.28,9.15-20.43,20.43-20.43C833.73,456.91,842.87,466.06,842.87,477.34z"/>
	<circle class="st25" cx="830.81" cy="469.7" r="2.23"/>
	<g>
		<path class="st13" d="M793.41,444.16c4.04-3.36,8.84-5.76,13.92-7.26c2.54-0.76,5.17-1.23,7.82-1.48
			c2.65-0.29,5.32-0.23,7.96,0.01l1.98,0.23c0.66,0.08,1.31,0.23,1.96,0.35c1.31,0.21,2.58,0.6,3.86,0.93
			c2.53,0.77,4.98,1.77,7.29,3c4.63,2.44,8.74,5.77,11.85,9.85c0.43,0.57,0.33,1.38-0.24,1.82c-0.44,0.33-1.02,0.35-1.46,0.08
			l-0.03-0.02c-4.1-2.52-8.28-4.6-12.61-6.07c-2.17-0.72-4.35-1.32-6.55-1.78c-2.21-0.4-4.42-0.73-6.65-0.84
			c-4.46-0.27-8.91,0.17-13.28,1.15c-4.36,1.02-8.61,2.65-12.71,4.7l-0.05,0.03c-1.39,0.7-3.09,0.14-3.79-1.25
			C792.09,446.4,792.42,444.98,793.41,444.16z"/>
	</g>
	<circle class="st13" cx="915.73" cy="476.4" r="20.43"/>
	<circle class="st25" cx="907.37" cy="468.76" r="2.23"/>
	<g>
		<path class="st13" d="M941.65,447.89c-4.09-2.06-8.35-3.68-12.71-4.7c-4.37-0.98-8.82-1.42-13.28-1.15
			c-2.23,0.11-4.44,0.44-6.65,0.84c-2.2,0.46-4.38,1.05-6.55,1.78c-4.33,1.47-8.51,3.56-12.61,6.07l-0.02,0.01
			c-0.61,0.37-1.41,0.18-1.78-0.43c-0.29-0.47-0.24-1.05,0.07-1.46c3.11-4.08,7.22-7.41,11.85-9.85c2.31-1.23,4.76-2.23,7.29-3
			c1.28-0.34,2.55-0.72,3.86-0.93c0.65-0.11,1.3-0.26,1.96-0.35l1.98-0.23c2.64-0.24,5.32-0.3,7.96-0.01
			c2.65,0.25,5.28,0.72,7.82,1.48c5.08,1.5,9.87,3.9,13.92,7.26c1.2,1,1.36,2.78,0.37,3.98c-0.86,1.03-2.29,1.3-3.44,0.72
			L941.65,447.89z"/>
	</g>
	<g>
		<path class="st13" d="M842.01,519.85c4.86,2.37,9.59,4.32,14.36,5.58c4.74,1.33,9.49,1.87,14.21,1.81
			c4.74-0.14,9.41-0.97,14.1-2.37c4.71-1.42,9.35-3.49,14.35-5.99c0.26-0.13,0.57-0.03,0.7,0.23c0.07,0.15,0.07,0.31,0.01,0.45
			c-1.2,2.62-2.95,4.94-4.97,7.02c-2.02,2.07-4.34,3.9-6.9,5.38c-5.1,3-11.1,4.61-17.1,4.69c-6.01,0.04-12.04-1.29-17.25-4.03
			c-5.21-2.69-9.78-6.46-12.85-11.32c-0.3-0.48-0.16-1.11,0.32-1.41c0.31-0.2,0.68-0.2,0.99-0.06L842.01,519.85z"/>
	</g>
	<path class="st24" d="M1137.33,494.75c-0.77-0.42-1.61-0.76-2.5-1l-68.03-18.16c-0.89-0.24-1.78-0.36-2.66-0.38
		c8.62-14.45,26.38-22,43.83-17.34C1125.41,462.53,1137.06,477.93,1137.33,494.75z"/>
	<path class="st24" d="M1131.25,514.62c-7.24,12.12-20.92,19.39-35.44,18.65c-2.78-0.13-5.59-0.57-8.4-1.32s-5.45-1.77-7.93-3.03
		c-12.95-6.61-21.19-19.72-21.42-33.84c0.77,0.42,1.61,0.76,2.5,1l68.03,18.16C1129.48,514.48,1130.37,514.6,1131.25,514.62z"/>
	<path class="st13" d="M838.43,490.05c-3.74,4.71-9.51,7.72-15.98,7.72c-6.66,0-12.57-3.19-16.3-8.12
		c4.16-3.92,9.77-6.31,15.93-6.31C828.45,483.34,834.23,485.9,838.43,490.05z"/>
	<g>
		<path class="st26" d="M838.43,490.05c-3.74,4.71-9.51,7.72-15.98,7.72c-6.66,0-12.57-3.19-16.3-8.12
			c4.16-3.92,9.77-6.31,15.93-6.31C828.45,483.34,834.23,485.9,838.43,490.05z"/>
		<path class="st26" d="M931.56,489.11c-3.74,4.71-9.51,7.72-15.98,7.72c-6.66,0-12.57-3.19-16.3-8.12
			c4.16-3.92,9.77-6.31,15.93-6.31C921.58,482.4,927.36,484.96,931.56,489.11z"/>
	</g>
	<path class="st19" d="M1142.6,506.96c-1.28,4.79-5.72,7.92-10.57,7.82c-0.88-0.02-1.77-0.14-2.66-0.38l-68.03-18.16
		c-0.89-0.24-1.72-0.58-2.5-1c-4.25-2.34-6.55-7.26-5.27-12.05c1.28-4.79,5.72-7.9,10.57-7.82c0.88,0.02,1.78,0.14,2.66,0.38
		l68.03,18.16c0.89,0.24,1.72,0.58,2.5,1C1141.59,497.25,1143.88,502.17,1142.6,506.96z"/>
</g>
</svg>
