<?xml version="1.0" encoding="utf-8"?>
<!-- Generator: Adobe Illustrator 25.0.0, SVG Export Plug-In . SVG Version: 6.00 Build 0)  -->
<svg version="1.1" id="Warstwa_1" xmlns="http://www.w3.org/2000/svg" xmlns:xlink="http://www.w3.org/1999/xlink" x="0px" y="0px"
	 width="1920px" height="1080px" viewBox="0 0 1920 1080" style="enable-background:new 0 0 1920 1080;" xml:space="preserve">
<style type="text/css">
	.st0{fill:#1D196A;}
	.st1{fill:#1B191B;}
	.st2{fill:#F9E9D9;}
	.st3{fill:#CEBDB5;}
	.st4{fill:#F9E9D9;stroke:#000000;stroke-width:1.1146;stroke-miterlimit:10;}
	.st5{fill:url(#SVGID_1_);}
	.st6{fill:#CEBDB5;stroke:#FFFFFF;stroke-miterlimit:10;}
	.st7{fill:#CEBDB5;stroke:#FFFFFF;stroke-width:1.6068;stroke-miterlimit:10;}
	.st8{fill:#EAE4E4;}
</style>
<g>
	<rect x="-293.63" y="80.23" class="st0" width="90.43" height="90.43"/>
	<path d="M-203.7,80.73v89.43h-89.43V80.73H-203.7 M-202.7,79.73h-91.43v91.43h91.43V79.73L-202.7,79.73z"/>
</g>
<g>
	<rect x="-293.63" y="275.94" class="st1" width="90.43" height="90.43"/>
	<path d="M-203.7,276.44v89.43h-89.43v-89.43H-203.7 M-202.7,275.44h-91.43v91.43h91.43V275.44L-202.7,275.44z"/>
</g>
<g>
	<rect x="-293.63" y="511.65" class="st2" width="90.43" height="90.43"/>
	<path d="M-203.7,512.16v89.43h-89.43v-89.43H-203.7 M-202.7,511.16h-91.43v91.43h91.43V511.16L-202.7,511.16z"/>
</g>
<g>
	<rect x="-293.63" y="678.8" class="st3" width="90.43" height="90.43"/>
	<g>
		<path d="M-203.7,679.3v89.43h-89.43V679.3H-203.7 M-202.7,678.3h-91.43v91.43h91.43V678.3L-202.7,678.3z"/>
	</g>
</g>
<path class="st4" d="M459.21,1093.17"/>
<g>
	<radialGradient id="SVGID_1_" cx="960" cy="540" r="1217.9015" gradientUnits="userSpaceOnUse">
		<stop  offset="0" style="stop-color:#1D196A"/>
		<stop  offset="1" style="stop-color:#1D1D1D"/>
		<stop  offset="1" style="stop-color:#000000"/>
		<stop  offset="1" style="stop-color:#1B191B"/>
	</radialGradient>
	<rect x="0.5" y="0.5" class="st5" width="1919" height="1079"/>
	<path d="M1919,1v1078H1V1H1919 M1920,0H0v1080h1920V0L1920,0z"/>
</g>
<g>
	<g>
		<path class="st2" d="M1294.66,540c0,147.45-95.35,272.62-227.76,317.22c-24.24,8.17-49.71,13.63-76.08,16.03
			c-10.15,0.94-20.43,1.41-30.82,1.41c-184.83,0-334.66-149.83-334.66-334.66c0-92.95,37.89-177.05,99.08-237.69
			c60.47-59.94,143.7-96.97,235.58-96.97C1144.83,205.34,1294.66,355.17,1294.66,540z"/>
	</g>
	<g>
		<path class="st3" d="M1066.9,857.22l-76.08,16.03c-10.15,0.94-20.43,1.41-30.82,1.41c-184.83,0-334.66-149.83-334.66-334.66
			c0-92.95,37.89-177.05,99.08-237.69C724.42,302.31,783.99,715.23,1066.9,857.22z"/>
	</g>
	<circle class="st6" cx="887.68" cy="393.09" r="33.7"/>
	<circle class="st6" cx="1020.96" cy="540" r="19.91"/>
	<circle class="st6" cx="1112.87" cy="368.57" r="12.26"/>
	<circle class="st6" cx="808.02" cy="275.13" r="16.09"/>
	<circle class="st7" cx="1038.58" cy="727.8" r="28.32"/>
	<circle class="st6" cx="1206.32" cy="561.6" r="36.77"/>
	<circle class="st6" cx="1197.13" cy="426.79" r="11.49"/>
	<circle class="st6" cx="846.12" cy="524.83" r="15.17"/>
	<circle class="st6" cx="736.02" cy="415.3" r="55.91"/>
	<circle class="st6" cx="1125.13" cy="588.48" r="11.1"/>
	<circle class="st6" cx="898.45" cy="745.43" r="37.16"/>
	<circle class="st6" cx="1056.21" cy="259.04" r="5.74"/>
</g>
<circle class="st8" cx="100.74" cy="79.04" r="22.98"/>
<circle class="st8" cx="154.36" cy="275.13" r="10.72"/>
<circle class="st8" cx="497.51" cy="205.34" r="23.4"/>
<circle class="st8" cx="252.7" cy="46.87" r="15.71"/>
<circle class="st8" cx="315.21" cy="577.39" r="20.97"/>
<circle class="st8" cx="196.49" cy="745.43" r="27.57"/>
<circle class="st8" cx="100.74" cy="874.66" r="17.06"/>
<circle class="st8" cx="1727.64" cy="898.62" r="6.89"/>
<circle class="st8" cx="1727.64" cy="239.89" r="13.41"/>
<circle class="st8" cx="1467.21" cy="102.02" r="22.98"/>
<circle class="st8" cx="1631.13" cy="368.57" r="12.26"/>
<circle class="st8" cx="1528.49" cy="460.49" r="10.72"/>
<circle class="st8" cx="1412.06" cy="556.41" r="20.97"/>
<circle class="st8" cx="1741.05" cy="561.6" r="15.79"/>
<circle class="st8" cx="1591.3" cy="658.11" r="13.02"/>
<circle class="st8" cx="1503.98" cy="818.96" r="13.79"/>
<circle class="st8" cx="1301.77" cy="947.64" r="12.26"/>
<circle class="st8" cx="960" cy="973.68" r="30.79"/>
<circle class="st8" cx="625.34" cy="898.62" r="6.89"/>
<circle class="st8" cx="443.89" cy="942.89" r="15.32"/>
<circle class="st8" cx="284.57" cy="995.13" r="9.66"/>
<circle class="st8" cx="770.19" cy="46.87" r="18.38"/>
<circle class="st8" cx="1056.21" cy="102.02" r="13.79"/>
<circle class="st8" cx="1206.32" cy="134.19" r="6.89"/>
<circle class="st8" cx="315.21" cy="174.02" r="20.97"/>
<circle class="st8" cx="428.57" cy="380.83" r="15.32"/>
<circle class="st8" cx="505.17" cy="609.09" r="8.43"/>
<circle class="st8" cx="100.74" cy="471.21" r="6.89"/>
<circle class="st8" cx="1837.94" cy="1016.57" r="6.13"/>
<circle class="st8" cx="1819.55" cy="79.04" r="22.98"/>
<circle class="st8" cx="1543.81" cy="958.21" r="10.03"/>
</svg>
