<?xml version="1.0" encoding="utf-8"?>
<!-- Generator: Adobe Illustrator 25.0.0, SVG Export Plug-In . SVG Version: 6.00 Build 0)  -->
<svg version="1.1" id="Warstwa_2" xmlns="http://www.w3.org/2000/svg" xmlns:xlink="http://www.w3.org/1999/xlink" x="0px" y="0px"
	 width="1010px" height="1010px" viewBox="0 0 1010 1010" style="enable-background:new 0 0 1010 1010;" xml:space="preserve">
<style type="text/css">
	.st0{opacity:0.5;fill:#724871;}
	.st1{fill:#FFFFFF;stroke:#000000;stroke-width:3;stroke-linecap:round;stroke-linejoin:round;stroke-miterlimit:10;}
	.st2{fill:none;stroke:#000000;stroke-width:3.2228;stroke-linecap:round;stroke-linejoin:round;stroke-miterlimit:10;}
	.st3{fill:#CCCCCC;stroke:#000000;stroke-width:3;stroke-linecap:round;stroke-linejoin:round;stroke-miterlimit:10;}
	.st4{fill:none;stroke:#000000;stroke-width:3;stroke-linecap:round;stroke-linejoin:round;stroke-miterlimit:10;}
	.st5{fill:#E099AC;stroke:#000000;stroke-width:3;stroke-linecap:round;stroke-linejoin:round;stroke-miterlimit:10;}
	.st6{fill:#F2F2F2;stroke:#000000;stroke-width:3.2228;stroke-linecap:round;stroke-linejoin:round;stroke-miterlimit:10;}
	.st7{stroke:#000000;stroke-width:2.0135;stroke-linecap:round;stroke-linejoin:round;stroke-miterlimit:10;}
	.st8{fill:#A3412D;stroke:#000000;stroke-width:3.2228;stroke-linecap:round;stroke-linejoin:round;stroke-miterlimit:10;}
	.st9{fill:#FFFFFF;stroke:#000000;stroke-width:2.6151;stroke-linecap:round;stroke-linejoin:round;stroke-miterlimit:10;}
</style>
<ellipse class="st0" cx="486.26" cy="899.65" rx="288" ry="46.74"/>
<path class="st1" d="M342.26,872.81c0,0-25.37,50.04,40.51,57.53c65.87,7.49,94.81-3.91,78.81-24.85
	c-16-20.94-49.21-26.1-49.21-26.1s-12.37-0.27-31.85,6.44C361.03,892.53,353.16,902.94,342.26,872.81z"/>
<path class="st2" d="M433.49,904.64c0,0,19.73,8.82,23.14,22.45"/>
<path class="st3" d="M342.33,692.27c-14.71-4.48-41.95,14.24-42.63,39.43c0,0-35.4-26.55-18.72,10.55c0,0,11.57,20.77,26.89,26.21
	c15.32,5.45,25.16,1.36,25.16,1.36s-3.87-5.62,34.51-50.3l-18.56-12.67L342.33,692.27z"/>
<path class="st1" d="M344.4,676.16c0,0-76.69,18.62-77.03,55.3c0,0-38.13-14.05-4.77,19.99c33.36,34.04,51.15,44.73,69.83,40.24
	l0.61-21.85c0,0-35.32,12.1-54.58-33.78c0,0-12.11-26.48,21.25-4.35c0,0,0.83-36.65,42.63-39.43L344.4,676.16z"/>
<path class="st3" d="M751.42,438.01c-0.19-0.77-0.5-1.6-0.94-2.48c-0.01-0.02-0.01-0.03-0.02-0.05
	c-3.65-7.39-15.29-18.25-28.57-23.08c-0.04-0.01-0.06-0.02-0.06-0.02c-0.52-0.19-1.04-0.41-1.57-0.68
	c-19.55-9.75-44.73-69.79-44.73-69.79s-30.3-62.29-40.85-38.12c0,0-15.84-15.06-34.36-22.28c-4.6-1.79-9.57-2.42-14.47-1.87
	L564.89,282c0,0,6.85-2.35,15.7-12.91c8.85-10.55,10.21-28.45-15.33-19.6l-25.22,12.08c0,0,13.62-8.85,14.98-14.97
	c1.36-6.13,4.09-20.05-22.13-3.22l-15.32,12.07c0,0-9.87-25.19-3.74-52.43c6.13-27.23,16.34-62.98,0-85.45
	c-16.34-22.46-20.09-30.29-30.64-30.97c-10.55-0.69-19.4,6.8-32,45.61c-12.59,38.81-19.74,52.09-14.64,86.81
	c5.11,34.72,16.51,57.11,16.51,57.11c-26.8,5.36-52.68,89.2-69.73,151.83c0,0,0,0.02-0.01,0.05c-9.75,35.77-16.6,64.61-19.11,67.95
	c-6.22,8.31-27.47,10.63-30.75,27.33v0.01c-0.35,1.78-0.5,3.72-0.4,5.85c0,0,5.61,8.1,16.53-5.8c0.01-0.01,0.03-0.03,0.03-0.05
	c0.45-0.55,0.89-1.15,1.35-1.78c-0.39,0.58-1.55,2.32-3.02,4.87c-0.02,0.03-0.03,0.06-0.05,0.08c-3.93,6.87-10.02,19.47-9.22,30.62
	c0.29,4.18,1.56,8.16,4.26,11.55c3.37,4.23,5.81,5.37,7.59,4.72c3.51-1.29,4.41-9.57,4.62-14.88v-0.04c0.1-2.58,0.04-4.44,0.04-4.44
	l-1.44-19.3c-0.01-0.12-0.02-0.25-0.03-0.37l-0.05-0.69c-0.01-0.12-0.02-0.24-0.02-0.36l-0.06-0.7c-0.06-0.88-0.1-1.39-0.1-1.39
	s0.15,0.21,0.47,0.61c0.14,0.19,0.33,0.42,0.54,0.69c0.12,0.16,0.26,0.34,0.42,0.52c0.27,0.33,0.57,0.71,0.92,1.12
	c0.34,0.42,0.72,0.87,1.15,1.37c0.17,0.2,0.35,0.4,0.53,0.62c0.37,0.42,0.76,0.87,1.18,1.34c10.7,12.11,37.56,38.73,77.12,52.68
	c8.11,2.87,16.76,5.19,25.92,6.75c55.92,9.52,89.2,15.66,120.86,3.75c26.59-10.01,58.84-22.69,81.69-32.89
	c4.36-1.95,8.37-3.8,11.94-5.53c13.06-6.33,28.44-19.03,40.12-35.36c11.59-16.19,19.55-35.96,18.02-56.62v-0.05
	c-0.37-5.06-1.32-10.18-2.92-15.31c0.05,0.15,0.12,0.35,0.21,0.6c0.04,0.13,0.09,0.26,0.14,0.41c0,0.02,0.01,0.04,0.02,0.06
	c0.1,0.28,0.22,0.6,0.34,0.96l0.01,0.01c1.71,4.7,5.88,15.37,10.43,20.82c5.01,6.03,8.77-9.63,3.03-25.26
	c-2.26-6.14-5.98-12.28-11.67-17.1c1.41,1.18,9.09,7.45,14.01,7.5c0.51,0,0.99-0.06,1.43-0.2
	C751.43,442.04,752,440.33,751.42,438.01z M589.74,461.06c-1.14,2.36-2.33,4.37-3.55,6.07c-13.55,18.78-31.27-0.81-31.8-1.41
	c-0.01-0.01-0.01-0.01-0.01-0.01C564.96,445.51,589.74,461.06,589.74,461.06z"/>
<path class="st4" d="M518.93,866.2c-4.42,0.39-9.71,1.03-16.11,1.97C504.08,867.9,510.79,866.56,518.93,866.2z"/>
<path class="st4" d="M550.03,875.66c-2.69-2.2-4.67-4.15-6.8-5.71C545.98,871.35,548.33,873.21,550.03,875.66z"/>
<path class="st4" d="M638.02,579.47l-12.1,5.58c3.97-1.87,7.94-3.89,11.92-6.05C637.84,579,637.9,579.16,638.02,579.47z"/>
<path class="st3" d="M658.85,681.32c-10.97,10.56-26.81,12.14-41.77,10.28c39.12-57.77,22.87-106.85,20.94-112.13l12.26-5.65
	C642.57,602.3,685.91,655.28,658.85,681.32z"/>
<path class="st5" d="M493.91,243.7c0,0-62.81-42.38-13.79-136.85C516.38,147.7,492.89,159.96,493.91,243.7z"/>
<path class="st3" d="M591.37,279.52c0,0-11.67-57.26,18.97-91.99c30.64-34.72,26.04-19.91,39.83-52.09c0,0,25.02-22.98,20.43,69.45
	c-4.6,92.43-47.3,89.62-47.3,89.62L591.37,279.52z"/>
<path class="st3" d="M617.08,691.92c-1.02,1.51-2.08,3.02-3.17,4.53c11.75,18.89-16.85,59.23-16.85,59.23s11.95,36.26,4.85,57.45
	c-5.77,17.22-18.44,25.67-17.1,26.3c21.66,10.23,23.87,31.12,14.33,42.48c-6.84,4.95-15.95,7.36-24.75,6.81
	c-1.74-0.44-3.55-1.03-5.41-1.8c-9.6-3.96-15.03-7.72-18.94-10.93c-0.01,0-0.01-0.01-0.01-0.01c-1.7-2.45-4.05-4.31-6.8-5.71
	c-4.55-3.35-9.81-4.97-24.21-3.75h-0.09c-8.14,0.36-14.85,1.7-16.11,1.97c-0.05,0.01-0.08,0.01-0.11,0.02
	c-0.07,0.01-0.11,0.02-0.11,0.02c29.44-41.7-59.75-90.56-58.73,21.11c-60.25-34.38-85.78,35.06-101.61-16.51l13.27-38.3
	c0,0-42.38-44.94-15.32-81.7c16.49-22.4,23.13-29.83,25.79-32.21c0.58-0.52,0.41-1.46-0.32-1.73c-8.08-3.04-35.62-15.67-17.34-50.7
	c21.96-42.09,43.62-78.84,71.36-84.67c0,0,98.03,49.8,201.77,3.59l0.16-0.07c1.43-0.64,2.85-1.3,4.28-1.97l12.1-5.58
	C639.95,585.07,656.2,634.15,617.08,691.92z"/>
<path class="st5" d="M607.79,268.72c0,0-9.7-34.21,22.39-66.89c26.03-26.51,25.61-44.94,25.61-44.94S666.51,271.28,607.79,268.72z"
	/>
<path class="st4" d="M518.93,866.2c-4.42,0.39-9.71,1.03-16.11,1.97C504.08,867.9,510.79,866.56,518.93,866.2z"/>
<path class="st2" d="M401.68,914.17c0,0,15.8,4.55,13.76,18.44"/>
<path class="st1" d="M547.66,921.12c-56.68,8.17-103.14-47.49-43.4-56.17c0,0,0.04-0.01,0.11-0.02c0.03-0.01,0.06-0.01,0.11-0.02
	c6.4-0.94,11.69-1.58,16.11-1.97h0.09c7.93-0.35,13.84-2.04,24.03,3.66c0.12,0.07,6.98,5.81,6.99,5.81
	c7.67,5.89,14.73,12.08,24.21,12.72c0.09,0.01,0.19,0.02,0.28,0.04c8.66,2.13,15.9,0.42,21.09-3.5c1.47-1.1,3.52,0.07,3.24,1.88
	C598.97,893.55,590.59,914.93,547.66,921.12z"/>
<path class="st2" d="M478.09,892.57c2.05-2.03,6.55-4.15,16.34-3.21"/>
<path class="st2" d="M487.7,904.94c3.14-2.87,9.79-6.75,21.7-4.73"/>
<path class="st1" d="M733.77,435.21c-0.01,0-0.01-0.01-0.02-0.01c0.01,0.01,0.02,0.03,0.04,0.04c0.62,0.69,7.16,8.05,11.84,17.24
	c3.71,7.28,6.26,15.71,3.77,22.88c-4.89,14.12-14.42-10.53-17.23-18.44l-0.01-0.01c-0.13-0.36-0.24-0.68-0.34-0.96
	c-0.01-0.02-0.02-0.04-0.02-0.06c-0.05-0.15-0.1-0.28-0.14-0.41c-0.09-0.25-0.16-0.45-0.21-0.6c-0.01-0.04-0.03-0.09-0.04-0.12
	c1.52,5.32,2.49,10.46,2.96,15.43v0.05c2.12,22.4-5.86,41.24-18.02,56.62c-14.72,18.63-35.57,32.2-52.06,40.89
	c-14.92,7.86-26.27,11.72-26.27,11.72c20.53,63.85-24.11,116.66-24.11,116.66c12.51,15.07-16.85,59.23-16.85,59.23
	c-13.54,28.59-45.7,40.09-57.7,43.15s-33.45,5.62-65.62,0s-44.42-42.38-43.4-61.28c1.02-18.89,20.68-39.83,44.68-68.42
	c24-28.6,17.23-64.52,17.23-64.52c-21.3-2.5-40.1-7.67-56.43-14.15c-41.31-16.39-66.84-41.19-77.12-52.68
	c-0.42-0.47-0.81-0.92-1.18-1.34c-0.18-0.22-0.36-0.42-0.53-0.62c-0.43-0.5-0.81-0.95-1.15-1.37c-0.36-0.41-0.66-0.79-0.92-1.12
	c-0.16-0.18-0.3-0.36-0.42-0.52c-0.22-0.27-0.4-0.5-0.54-0.69c-0.32-0.4-0.47-0.61-0.47-0.61s0.04,0.51,0.1,1.39
	c0.02,0.21,0.03,0.45,0.06,0.7c0,0.12,0.01,0.24,0.02,0.36c0.01,0.22,0.03,0.45,0.05,0.69c0.01,0.12,0.02,0.25,0.03,0.37
	c0.42,5.95,1.24,17.92,1.4,23.74v0.04c0.16,5.81,0.28,15.12-4.62,14.88c-1.78-0.08-4.23-1.45-7.59-4.72
	c-2.99-2.91-4.19-7-4.26-11.55c-0.2-10.96,6.09-24.56,9.22-30.62c0.02-0.02,0.03-0.05,0.05-0.08c0.87-1.7,1.5-2.79,1.64-3.04
	c0.01-0.01,0.02-0.03,0.02-0.04c-6.92,6.75-15.52,12.98-16.15-0.01v-0.01c-0.61-12.98,24.48-22.31,30.75-27.33
	c6.17-4.94,18.72-66.05,19.11-67.95c0.01-0.03,0.01-0.05,0.01-0.05c21.15-17.95,30.41-17.28,82.56-0.94
	c3.59,1.12,7.15,2.38,10.7,3.75c10.36,3.97,20.52,8.83,30.39,13.72c16.76,8.31,32.7,16.75,47.4,21.22c0,0,0,0,0.01,0.01
	c0.53,0.6,18.25,20.19,31.8,1.41c4.54-1.48,8.88-3.89,12.99-7.43c3.71-3.19,7.71-6.43,11.94-9.67c12.43-9.52,26.83-18.94,41.5-26.38
	c24.42-12.39,49.59-19.28,67.64-11.95c0.53,0.21,1.05,0.44,1.57,0.68c0,0,0.02,0.01,0.06,0.02c1.23,0.33,20.95,5.98,28.51,22.95
	c0.02,0.05,0.04,0.09,0.06,0.13c0.01,0.02,0.01,0.03,0.02,0.05c0.4,0.93,0.72,1.75,0.94,2.48c1.47,4.66-0.43,5.59-3.45,4.87
	C742.8,441.66,734.35,435.63,733.77,435.21z"/>
<ellipse class="st6" cx="497.05" cy="381.46" rx="30.4" ry="66.67"/>
<ellipse class="st7" cx="492.68" cy="405.6" rx="18.6" ry="42.53"/>
<ellipse class="st6" cx="625.92" cy="391.77" rx="30.4" ry="66.67"/>
<path class="st2" d="M631.97,467.19c0,0-11.59,9.87-28.61,9.19c0,0-4.77,28.94-27.57,11.23c0,0-25.19,10.84-30.98-7.35
	c0,0-4.38,12.45-39.81,10.07"/>
<path class="st2" d="M591.77,493c0,0,1.75,24.23-23.28,30.7c0,0-26.82-4.85-18.61-35.96c0,0,11.27,8.72,25.91-0.13
	C575.79,487.62,586.65,495.99,591.77,493z"/>
<path class="st8" d="M589.74,461.06c-1.14,2.36-2.33,4.37-3.55,6.07c-13.55,18.78-31.27-0.81-31.8-1.41
	c-0.01-0.01-0.01-0.01-0.01-0.01C564.96,445.51,589.74,461.06,589.74,461.06z"/>
<path class="st2" d="M544.47,440.3c0,0,17.31-21.94,39.83-4.43"/>
<ellipse class="st7" cx="623.92" cy="415.91" rx="18.6" ry="42.53"/>
<path class="st2" d="M609.83,565.23c0,0,4.16,30.59-41.34,35.74"/>
<path class="st2" d="M557.4,669.74c0,0,9.39,17.36-9.09,29.62"/>
<path class="st2" d="M366.35,720.18c0,0,26.97-26.95,32.42-40.91"/>
<path class="st2" d="M385.83,676.16c9.87,3.12,25.87-5.39,32.68-16.62"/>
<path class="st2" d="M613.91,696.13c0,0-3.74,5.96-17.02,11.06"/>
<path class="st2" d="M584.81,839.11c0,0-9.94,13.1-30.76,10.38"/>
<path class="st2" d="M488.98,279.62c0,0-32.34,9.19-37.45,29.96"/>
<path class="st2" d="M564.89,282c0,0,23.15,21.11-0.51,20.43"/>
<path class="st2" d="M634.68,303.79c0,0-7.65,7.03-8.76,11"/>
<path class="st2" d="M575.79,487.62c0,0,4.8,7.83-3.73,16"/>
<ellipse transform="matrix(0.9508 -0.3097 0.3097 0.9508 -89.4743 214.6561)" class="st9" cx="631.28" cy="389.11" rx="4.25" ry="7.52"/>
<ellipse transform="matrix(0.9508 -0.3097 0.3097 0.9508 -93.4759 174.1487)" class="st9" cx="501.71" cy="381.46" rx="4.25" ry="7.52"/>
</svg>
