<?xml version="1.0" encoding="utf-8"?>
<!-- Generator: Adobe Illustrator 25.0.0, SVG Export Plug-In . SVG Version: 6.00 Build 0)  -->
<svg version="1.1" xmlns="http://www.w3.org/2000/svg" xmlns:xlink="http://www.w3.org/1999/xlink" x="0px" y="0px" width="1920px"
	 height="1080px" viewBox="0 0 1920 1080" style="enable-background:new 0 0 1920 1080;" xml:space="preserve">
<style type="text/css">
	.st0{fill:#F9C19B;}
	.st1{fill:#F7B589;}
	.st2{fill:none;}
	.st3{fill:#E09C77;}
	.st4{fill:#D8946F;}
	.st5{fill:#E09F77;}
	.st6{fill:url(#SVGID_1_);}
	.st7{fill:url(#SVGID_2_);}
	.st8{fill:#68260F;}
	.st9{fill:url(#SVGID_3_);}
	.st10{fill:#EDDDD0;}
	.st11{fill:#F1A181;}
	.st12{fill:#1B1B1C;}
	.st13{fill:#79464B;}
	.st14{fill:#B55A29;}
	.st15{fill:#793921;}
	.st16{fill:#D67043;}
	.st17{fill:#FFFDFD;}
	.st18{fill:#6B2D1B;}
	.st19{fill:#260E0A;}
	.st20{fill:url(#SVGID_4_);}
	.st21{fill:#1B181C;stroke:#1B181C;stroke-miterlimit:10;}
	.st22{fill:#1B181C;stroke:#1B181C;stroke-width:1.2;stroke-miterlimit:10;}
	.st23{fill:#1B181C;stroke:#1B181C;stroke-linecap:round;stroke-linejoin:round;stroke-miterlimit:10;}
	.st24{fill:#4C3B30;}
</style>
<g id="Warstwa_9">
	<polygon class="st0" points="1920,476.81 1920,1080 1600.75,1080 1543.81,929.26 1530.72,675.65 1530.2,665.55 1521.54,497.77 
		1351.25,445.98 1178.86,393.55 1060.74,357.63 820.74,228.19 881.4,120.94 911.45,67.81 1098.94,80.85 1267.44,92.57 
		1598.63,332.32 	"/>
	<path class="st1" d="M1618.55,442.07c-9.33,5.01-19.02,8.32-28.89,10.24L1618.55,442.07z"/>
	<path class="st1" d="M0,0.01V1080h1767.72c-66.17-67.05-157.2-247.94-170.29-281.33c-16.34-41.69-8.17-188.09,72.51-183.63
		c80.68,4.46,117.44-10.59,119.61-25.91c2.17-15.32-21.57-25.23-21.57-25.23s23.49-0.3,21.45-22.32
		c-2.05-22.01-46.98-11.68-58.22-14.75c-11.23-3.06-12.25-36.6-12.25-36.6c-145.02,61.45-185.36-18.04-185.36-18.04l56.06-19.88
		c-79.61,15.51-170.45-59.27-170.45-59.27c21.29-5.59,67.51-52.31,81.87-67.24c2.77-2.88,4.36-4.58,4.36-4.58l-21.71-16.43
		l-4.92,3.65h-0.01l-71.33,52.95c-102.13,8.68-108.45-54.36-108.45-54.36c-56.37,31.44-132.57-1.82-132.57-1.82l11.74-9.95
		c-91.4,16.08-103.56-29.08-103.56-29.08c-40.25,30.41-67.45,2.68-67.45,2.68c-78.55,16.46-112.14-33.64-112.14-33.64
		c-40.59-75.11,104.91-104.29,104.91-104.29c152.74,15.87,271.49,54.37,363.92,99.79h0.01c134.24,65.97,212.98,146.56,259.73,193.72
		c0.01,0.01,0.01,0.01,0.02,0.02c17.03,17.2,29.82,29.95,39.5,35.92c41.29,25.5,188.18,49.08,256.87,59V0.01H0z"/>
	<path class="st2" d="M1955.89,492.95v31.37c0,0-13.96-1.77-35.89-4.94v-42.57L1955.89,492.95z"/>
	<path class="st3" d="M672.4,167.55c0,0-263.58,69.28-321.88,296c0,0,79.11-42.29,129.37,5.62c0,0-58.28,37.5-104.94,104.68
		c0,0,111.32-78.28,120-95.82c0,0,115.3-96.33,156.61-107.33C651.57,370.7,530.96,260.66,672.4,167.55z"/>
	<path class="st2" d="M1800.75,1103.71c-26.07-0.86-95.06-1.4-191.68-1.7h-0.01c-147.78-0.44-360.21-0.32-582.65,0.06
		c-7.32,28.28-21.31,52.38-21.31,52.38l-502.48-30.64c0,0-5.84-7.48-14.68-20.45h-0.01c-280.03,0.82-492.89,1.65-492.89,1.65V421.68
		c1.55-5.08,3.2-10.12,4.96-15.1V1080h1767.72C1779.76,1092.2,1790.98,1100.63,1800.75,1103.71z"/>
	<path class="st4" d="M1030.36,1080H472.75c-5.48-8.84-11.34-18.77-17.26-29.55c-0.01-0.04-0.03-0.07-0.05-0.1
		c-11.33-20.64-22.81-44.4-32.07-69.6c-0.01-0.02-0.02-0.03-0.02-0.04c-28.61-77.79-36.12-169.3,47.35-225.33
		c0,0,296.23,127.92,555.99,114.13c0,0-57.87,64.26-387.74,29.83c0,0,206.09,109.57,325.68,114.17
		C1021.15,1015.68,1033.29,1047.28,1030.36,1080z"/>
	<path class="st5" d="M1643.21,452.76c0,0-143.87-240.97-508.45-360.19S984.4,42.28,984.4,42.28S638.03-58.25,734.96,141.25
		c0,0,229.7-57.09,426.6,12.35C1161.55,153.6,1344.32,157.04,1643.21,452.76z"/>
	<path class="st0" d="M383.88,606.79c-2.33,1.64-4.88,3.09-7.61,4.39L383.88,606.79z"/>
	<path class="st0" d="M471.15,1080H40.45c-6.78-103.46-41.61-679.92,31.7-582.23c0,0,32.68,123.06,112.34,109.02
		c79.66-14.05,111.06-94.73,169.4-109.02c58.34-14.3,19.7,46.59-3.36,69.25c-23.06,22.66-84.34,48.19-84.34,48.19
		s72.31,13.76,110.05-4.02l-108.01,62.24c0,0-33.7,37.5-19.4,65.21c14.3,27.72,88.96,52.1,154.78,29.7c65.82-22.4,0,7.9,0,7.9
		s-43.79,48.12,19.74,204.47c0,0.01,0.01,0.02,0.02,0.04c8.59,21.16,19.16,44.31,32.07,69.6c0.02,0.03,0.04,0.06,0.05,0.1
		C460.37,1059.99,465.58,1069.84,471.15,1080z"/>
	<linearGradient id="SVGID_1_" gradientUnits="userSpaceOnUse" x1="996.1773" y1="593.6877" x2="1481.0194" y2="593.6877">
		<stop  offset="0" style="stop-color:#FFF2E9"/>
		<stop  offset="0.4504" style="stop-color:#FFF6F0"/>
		<stop  offset="1" style="stop-color:#FFFFFF"/>
	</linearGradient>
	<path class="st6" d="M1009.97,797.21c0,0,325.94-50.1,412.02-96.13c0,0-59.97,10.29-60.99,0c0,0,260.82-125.61,13.48-244.12
		s-193.95-43.2-193.95-43.2L996.18,759.05L1009.97,797.21z"/>
	<path class="st4" d="M530.7,0.28C520.98,4.29,100.25,121.42,0,406.58V0.01L530.7,0.28z"/>
	<path class="st0" d="M494.96,744.6c0,0,552.4,201.37,1026.58-77.37l27.4-5.33C1548.94,661.9,1158.79,990.42,494.96,744.6z"/>
	<rect y="0.01" class="st2" width="1920" height="1079.99"/>
</g>
<g id="Warstwa_8">
	<linearGradient id="SVGID_2_" gradientUnits="userSpaceOnUse" x1="401.226" y1="673.1812" x2="292.4601" y2="721.4365">
		<stop  offset="0" style="stop-color:#FFE9D2"/>
		<stop  offset="0.2454" style="stop-color:#FDD9BF"/>
		<stop  offset="0.7391" style="stop-color:#F7AF8F"/>
		<stop  offset="1" style="stop-color:#F39673"/>
	</linearGradient>
	<polygon class="st7" points="370.87,637.17 424.4,719.46 437,731.28 420.4,733.64 362.7,738.64 301.94,730.68 270.79,695 
		273.85,673.94 300.4,656.04 352.49,620.83 	"/>
	<path class="st8" d="M1019.22,284.43c0,0-199.73-2.67-249.15,37.67c0,0-92.19,25.87-171.46,80.38S420.7,538.11,384.04,602.96
		l119.45-97.76c0,0,139.43-88.97,186.72-106.93c47.29-17.95,193.61-71.41,266.11-63.4C1028.82,342.88,1019.22,284.43,1019.22,284.43
		z"/>
</g>
<g id="Warstwa_6">
	<linearGradient id="SVGID_3_" gradientUnits="userSpaceOnUse" x1="940.483" y1="567.843" x2="453.1904" y2="542.4346">
		<stop  offset="0" style="stop-color:#FFF2E9"/>
		<stop  offset="0.1959" style="stop-color:#FEEDE2"/>
		<stop  offset="0.4716" style="stop-color:#FBDFD0"/>
		<stop  offset="0.793" style="stop-color:#F7C8B2"/>
		<stop  offset="1" style="stop-color:#F3B69B"/>
	</linearGradient>
	<path class="st9" d="M723.61,385.43l-138.78,67.34c0,0-61.47,29.17-197.72,154.02l-3.23,42.92c0,0,27.84,64.54,53.12,81.58
		c0,0,22.22,3.37,28.1,5.93c0,0,33.35-10.45,43.14-3.08s218.21,50.95,218.21,50.95s184.16,16.39,196.09,11.23l90.89,0.92
		L867.98,332.32L723.61,385.43z"/>
	<path class="st10" d="M1193.96,391.23l23.55,88.16c0,0,18.67-67.07,39.21-28.43c0,0,1.13-23.14,23.09-19.06
		c21.96,4.09,11.23,41.36,11.23,41.36s17.36-18.89,23.49-15.83c6.13,3.06,6.35,64.69,2.92,70.9c0,0,20.57-64.87,34.36-51.29
		s4.6,73.84,4.6,73.84s28.6-72.51,42.89-58.72s10.23,27.65,10.23,27.65s42.42-25.3,69.71,54.21v-19.74l-23.26-44.84l-30.13-26.82
		l-44.63-21.47l-80.99-50.26L1193.96,391.23z"/>
</g>
<g id="Warstwa_7">
	<path class="st11" d="M449.68,602.96c0,0,9.87-3.4,13.96,0c4.09,3.4,1.36,5.79,5.45,7.49c4.09,1.7,14.98,3.06,20.43,0
		c5.45-3.06,5.79-12.26,14.98-12.94c9.19-0.68,20.09-9.19,20.09-9.19v-8.17c0,0,9.87-5.79,11.91-6.81
		c2.04-1.02,5.45-2.04,5.45-13.96c0-11.91,0-30.34,0-30.34l1.61-1.39v32.75c0,0,9.62,3.4,14.73,2.72c0,0-5.28,2.72-13.79,0
		c0,0-2.72,10.21-3.4,10.89s-14.3,7.83-14.3,7.83l-0.68,9.36c0,0-8.85,7.32-14.64,7.66c-5.79,0.34-9.53,2.89-9.53,2.89l-6.13,5.45
		c0,0-5.45,8.68-20.26,6.81c-14.81-1.87-8-7.15-12.26-8.85c-4.26-1.7-16.34,0.68-16.34,0.68L449.68,602.96z"/>
	<path class="st11" d="M506.7,677.26c0,0,16.85-0.77,24,2.81c7.15,3.57,13.79,0,13.79,0s11.74-1.02,16.34-8.68
		c4.6-7.66,2.3-5.62,2.3-5.62s1.02-0.77,4.34-2.81s7.66-2.3,7.66-2.3l3.32-3.06h0.94l-2.21,2.55c0,0,1.36,1.19,3.91-0.17v1.87
		c0,0-5.45-1.19-7.49,0c-2.04,1.19-7.32,3.06-7.32,3.06s-3.66,6.72-8,11.32c-4.34,4.6-14.38,6.64-14.38,6.64s5.7,4.85,9.28,5.36
		c3.57,0.51,9.19,8.43,10.21,9.19c1.02,0.77,4.34,6.28,8.43,3.65c4.09-2.63,10.72,1.71,11.49,1.97c0.77,0.26,11.23-1.79,15.06,0
		s2.3,6.38,2.3,6.38l4.86,5.11c0,0,8.42-1.34,8.93-15.61c0,0,0.31,11.78-2.65,15.61s-0.39,9.57,2.66,7.98s6.63,4.02,6.63,4.02
		s8.68-3.57,8.17-13.28c0,0,3.32,8.94-4.09,13.28c0,0,5.36,5.48,8.17,4.14c2.81-1.33,12.51-3.63,13.53-3.12
		c1.02,0.51,11.23,0.51,13.28-1.53c2.04-2.04,6.64-7.66,6.64-7.66l1.53,0.77l-7.91,9.19c0,0,10.47,0.63,12,2.36
		c0,0-15.06-1.73-17.62,0c-2.55,1.73-1.02-2.84-18.64,0.21l-5.87,1.52c0,0-3.83-4.09-7.4-4.09c-3.57,0-7.4-4.09-7.4-4.09
		s-2.55,1.28-6.64-1.02l-2.04-6.64l-4.85-3.32l-4.09-3.83v-4.6c0,0-5.62-1.53-8.3-0.26c-2.68,1.28-10.85-0.51-10.85-0.51
		s-4.85-1.02-7.15-0.26c-2.3,0.77-8.04-2.73-8.04-2.73l-6.77-8.5c0,0-5.11-1.79-7.66-3.32c-2.55-1.53-6.38-4.6-6.38-4.6
		s-10.21,0.26-10.72-1.28c-0.51-1.53-8.68-3.06-8.68-3.06l-15.32-2.04L506.7,677.26z"/>
	<path class="st11" d="M516.91,630.79c0,0,1.02-9.45-1.53-11.23c0,0,3.83,2.81,3.83,7.66c0,0,8.17,0,8.94-1.28
		c0.77-1.28,3.83-4.34,5.11-4.34s5.36,1.28,8.17,0c2.81-1.28,7.4-4.41,8.68-7.31c1.28-2.9,3.58-2.14,4.98-1.88
		c1.4,0.26,8.42-0.28,8.42-0.28s6-4.31,6-7.38c0,0-2.55,8.94,1.53,6.13l4.62-1.53l3.3-4.6l-5.36-6.38c0,0-0.13-1.4,0.77-3.19
		c0,0,0.38,1.36,0.26,2.81c-0.13,1.45,3.06,3.45,3.06,3.45l2.17,2.81c0,0-0.51,2.3-1.53,3.45s-3.06,3.57-3.06,3.57l-4.98,0.77
		c0,0-1.95,1.01-2.94-0.64c0,0-4.34,0.7-4.34,2.9c0,0,0.38-2.39-3.19-0.6l-6.26,0.6c0,0-0.51-1.24-2.04,0.93s1.79,2.81,1.79,2.81
		l-3.32-0.64l-6.64,4.34c0,0-5.74,2.3-8.04,1.53c-2.3-0.77-3.83-0.13-6,2.68c0,0-0.64,1.15-1.15,1.28s-4.72,0.89-4.72,0.89
		l-3.96,0.77L516.91,630.79z"/>
	<path class="st11" d="M429.85,619.81c0,0-27.83,75.91,74.3,112.6c0,0-32.73,0.65-41.39,6.24l-21.05-6.24l-32.54-33.48l-29.62-52.39
		l22.76-55.54l60.93-55.25l84.05-58.85l99.63-56.08l87.5-42.06l-44.21,72.2c0,0,8.77-15.1-47.18-5.78
		C587.1,454.49,491.09,558.7,491.09,558.7l-47.76,33.96l-12.17,20.32L429.85,619.81z"/>
	<path class="st11" d="M418.36,653.51c0,0,10.72,3.06,18.64,9.19c7.91,6.13,9.96,11.74,9.96,11.74s5.11,3.06,6.64,2.81
		c1.53-0.26,11.5,3.32,11.5,3.32s-4.86,0.51-3.84,4.09c1.02,3.57,7.66,3.57,7.66,3.57s9.7-1.53,10.98-4.6c0,0-7.89,8.17-14.8,7.66
		l8.41,2.17l5.49-1.79l5.62,1.79c0,0,0.77,3.57,3.96,3.83s9.57,1.63,9.57,1.63v2.84c0,0,1.79,0.38,3.32,0.89
		c1.53,0.51,1.79,2.17,1.79,2.17s-0.51,1.53,1.4,2.17s-0.77,0-0.77,0s-0.71-0.81-1.91-2.68c-1.2-1.87-4.72-1.79-4.72-1.79
		l-0.51-2.68l-1.79-0.93c0,0-6.13-1.75-7.66-0.6c-1.53,1.15-1.79,2.81-1.91,3.96c-0.13,1.15,0.26-1-1.66-1.2c0,0,2.04-0.2,2.3-3.39
		l-2.17-2.68l-3.96-2.04l-4.85,0.89c0,0-3.32,0.26-4.98-0.26c-1.66-0.51-7.53-2.55-7.53-2.55s8.17-0.51,9.83-2.68
		c0,0-6,1.02-6.51,0.64c-0.51-0.38-4.6-2.3-4.6-2.3l-1.4-4.72l-2.55,1.79c0,0-1.02,0.13-0.64,1.02c0,0-0.77-1.28-1.79-0.89
		c0,0,2-0.04,4.13-2.51c0,0,1.66-0.77,2.3-0.51c0,0,1.28,0-2.04-1.19s-5.23-1.83-5.23-1.83l-3.83-0.38l-4.34-3.36l-3.32-5.28
		l-8.85-7.49l-10.21-4.68L418.36,653.51z"/>
</g>
<g id="Warstwa_5">
	<path class="st12" d="M961.07,776.24c-91.67-0.01-167.55-41.44-181.42-51.69c-24.05-17.78-48.93-38.79-68.04-71.87
		c-19.21-33.25-30.5-74.67-35.51-130.34c-5.76-63.96,17.96-104.98,38.88-128.12c22.8-25.23,47.28-35.16,48.31-35.58l0.39-0.16
		l64.94-21.7l215.71-24.5l2.36,0.49c3.33,0.69,81.93,17.17,110.18,31.47c16.48,8.34,33.8,40.47,38.71,50.12
		c10.64,20.89,24.52,54.59,30.18,96.46c7.83,57.91,0.76,141.84-77.41,212.85c-53,48.15-116.01,72.57-187.27,72.57
		C961.09,776.24,961.08,776.24,961.07,776.24z"/>
	<path class="st13" d="M768.85,372.58c0,0-88.02,35.05-77.81,148.42s46.77,153.96,97.53,191.49
		c20.65,15.27,203.83,112.6,349.7-19.91s38.64-321.37,11.83-334.94c-26.81-13.57-106.47-30.17-106.47-30.17l-211.75,24.05
		L768.85,372.58z"/>
	<path class="st14" d="M795.16,358.93c0,0-134.27,72.45-69.66,244.02s279.6,139.22,279.6,139.22s159.76-38.81,187.37-160.13
		c27.62-121.32-57.2-230.53-57.2-230.53l-101.43-20.64c-24.03-4.89-48.62-6.53-73.09-4.86l-46.37,3.15
		c-30.78,2.09-61.11,8.53-90.09,19.12L795.16,358.93z"/>
	<path class="st15" d="M716.12,573.77c0,0,41.73-237.03,180.54-29.93L1005.1,521c0,0,137.77-208,190.55,44.01
		c0,0,35.66-157.58-67.39-199.5c-100.25-40.78-143.85-37.3-143.85-37.3l-176.82,26.18C807.58,354.39,675.23,398.56,716.12,573.77z"
		/>
	<path class="st16" d="M749.1,635.86c-16.3-21.2-19.37-49.81-7.43-73.74c9.21-18.45,25.31-34.8,53.04-28.07
		c56.68,13.76,45.19,27.54,92.68,62.01c47.49,34.47,117.71,6.89,141.44-28.33c19.95-29.61,79.92-62.54,113.2-27.73
		c27.02,28.26,33.25,71.2,16.51,99.72c-16.74,28.53-75.01,71.23-162.35,96.51c-87.35,25.28-198.41-46.72-198.41-46.72
		S769.33,662.19,749.1,635.86z"/>
	<path class="st17" d="M1090.36,497.77"/>
	<path class="st18" d="M710.92,476.89c0,0,106.76-78.22,165.74,7.84l128.44-5.45c0,0,109.37-128.06,196.51,18.49
		c0,0,10.92-128.12-109.74-156.72c-121.29-28.76-243.38,0-243.38,0S724.42,359.25,710.92,476.89z"/>
	<path class="st19" d="M750.76,391.23c0,0,38.58-27.58,69.99-19.37s38.11-6.48,60.04-12.92c21.92-6.44,47.69-8.11,62.76,0
		s53.37,14.13,64.86,6.52c11.49-7.61,22.55,2.01,43.83,6.39c21.28,4.38,39.38,19.28,62.88,11.06s60.9,14.53,60.9,14.53
		s-26.57-76.43-133.61-73.9c-34.11,0.81-32.13-4.6-107.33,2.46c-66.66,6.26-103.19,14.74-103.19,14.74S756.6,374.81,750.76,391.23z"
		/>
	<path class="st17" d="M1013.43,365.68c0,0,48.34-2.72,50.89,10.89c0,0,0.67,2.03-1.36,1.62c-1.08-0.22-2.94-0.7-3.66-1.53
		c-1.11-1.3-6.85-4.1-11.06-4.81C1042.11,370.83,1013.43,365.68,1013.43,365.68z"/>
	<path class="st17" d="M1088.83,376.03c-2.89,2.58-4.6,4.63-0.85,5.65c3.74,1.02,9.36,2.72,9.87-1.36s-3-4.29-6.01-4.29
		C1088.83,376.03,1088.83,376.03,1088.83,376.03z"/>
	<linearGradient id="SVGID_4_" gradientUnits="userSpaceOnUse" x1="951.5215" y1="654.0516" x2="948.4492" y2="729.5264">
		<stop  offset="0" style="stop-color:#D67443"/>
		<stop  offset="0.1819" style="stop-color:#D87947"/>
		<stop  offset="0.4015" style="stop-color:#DF8854"/>
		<stop  offset="0.6405" style="stop-color:#E9A069"/>
		<stop  offset="0.8918" style="stop-color:#F8C286"/>
		<stop  offset="1" style="stop-color:#FFD394"/>
	</linearGradient>
	<path class="st20" d="M856.32,621.72c-32.46-33.68-43.54-43.91-59.32-35.62s-35.3,18.61-18.41,47.22s125.89,107.5,211.55,85.29
		s153.45-81.61,143.69-126.98c-9.76-45.36-71.53-17.45-82.01,0s-38.05,65.7-76.35,62.64S887.69,654.27,856.32,621.72z"/>
	<path class="st17" d="M1132.09,393.14c-3.95-3.25-3.74-2.21-7.66,2.04c-3.91,4.26,5.11,2.72,5.62,3.06
		S1134.98,395.52,1132.09,393.14z"/>
	<path class="st17" d="M1161.55,400.63c0,0,33.4,36.11,28.41,82.24C1189.97,482.88,1193.8,447.26,1161.55,400.63z"/>
	<path class="st17" d="M732.79,620.15c0,0,0.31,1.28,1.09,3.57c6.33,18.56,43.49,103.79,196.64,120.88
		c0,0-135.71-8.97-197.42-123.18"/>
	<path class="st14" d="M820.74,565.43c0,0-31.93,1.58-47.49,41.36C773.26,606.79,792.87,569.53,820.74,565.43z"/>
	<path class="st14" d="M831.66,586.11c0,0-43.39,17.08-47.83,47.22C783.83,633.33,824.95,583.04,831.66,586.11z"/>
	<path class="st14" d="M875.13,595.3c0,0-37.53,13.79-37.53,58.98C837.6,654.28,852.15,600.66,875.13,595.3z"/>
	<path class="st14" d="M887.38,620.15c0,0-32.39,44.21-31.02,75.49C856.36,695.64,881.26,618.19,887.38,620.15z"/>
	<path class="st14" d="M1052.23,561.6c0,0,79.1-13.79,80.83,39.06c1.73,52.85,0,6.13,0,6.13S1132.06,554.7,1052.23,561.6z"/>
	<path class="st14" d="M1060.74,581.51c0,0,48.93,10.4,56.43,51.82C1117.17,633.33,1100.83,594.53,1060.74,581.51z"/>
	<path class="st14" d="M1048.23,599.89c0,0,24.63,15.32,37.59,64.34C1085.83,664.23,1058.96,602.19,1048.23,599.89z"/>
	<path class="st14" d="M926.51,602.96c0,0-20.11,32.2-13.85,54.92C912.66,657.88,914.33,628.23,926.51,602.96z"/>
	<path class="st14" d="M956.32,599.89c0,0,12.55,17.62,13.93,43.66C970.26,643.55,973.95,617.51,956.32,599.89z"/>
	<path class="st14" d="M992.32,591.64c0,0,11.49,13.62,17.62,48.08C1009.94,639.72,1011.47,608.66,992.32,591.64z"/>
	<path class="st14" d="M975.47,602.96c0,0,33.4,51.32,25.67,92.68C1001.14,695.64,1019.13,657.34,975.47,602.96z"/>
	<path class="st14" d="M860.38,565.43c0,0-41.93,3.96-63.38,20.68C797,586.11,854.06,562.36,860.38,565.43z"/>
	<path class="st14" d="M875.13,575.63c0,0-49.79,5.88-63.57,46.09C811.55,621.72,835.3,585.07,875.13,575.63z"/>
	<path class="st14" d="M937.51,598.68c0,0,21.46,55.07,0,96.96C937.51,695.64,948.58,644.95,937.51,598.68z"/>
	<path class="st14" d="M1009.97,573.77c0,0,36.11,0.37,46.69,26.12C1056.66,599.89,1031.44,575.98,1009.97,573.77z"/>
	<path class="st14" d="M1001.14,581.51c0,0,39.52,1.85,51.09,65.65C1052.23,647.16,1031.41,592.23,1001.14,581.51z"/>
	<path class="st14" d="M893.51,595.3c0,0-39.34,4.68-50.17,62.58C843.34,657.88,851.38,619.81,893.51,595.3z"/>
	<path class="st14" d="M911.45,599.89c0,0-31.51,29.15-29.38,82.48C882.07,682.38,893.39,619.04,911.45,599.89z"/>
	<path class="st14" d="M947.05,602.96c0,0,22.9,62.71,9.27,101.87C956.32,704.83,980.18,665.71,947.05,602.96z"/>
	<path class="st14" d="M1042.41,543.34c0,0,55.78-36.91,95.91,5.01C1138.31,548.35,1092.98,520.1,1042.41,543.34z"/>
	<path class="st14" d="M1037.88,552.33c0,0,86.47-20.74,111.92,14.04C1149.8,566.37,1120.17,538.24,1037.88,552.33z"/>
	<path class="st14" d="M832.05,544.77c0,0-62.91-26.61-89.99,40.41C742.06,585.18,768.96,536.13,832.05,544.77z"/>
	<path class="st21" d="M802.29,810.75c0,0,35.35-33.16,65.2,58.76c0,0-23.25-70.53-55.93-58.76
		C778.87,822.53,802.29,810.75,802.29,810.75z"/>
</g>
<g id="Warstwa_4">
	<ellipse cx="937.51" cy="516.7" rx="77.99" ry="74.94"/>
	<circle class="st17" cx="1096.29" cy="484.73" r="31.97"/>
</g>
<g id="Warstwa_2">
	<path class="st21" d="M1153.49,311.51c-1.12,0.95-1.01,2.72,0.2,3.54c9.11,6.22,42.72,22.64,105.76-15.88
		c51.02-31.18,113.62-120.86,148.43-175.01c1.55-2.41,5.22-0.29,3.9,2.25c-33.28,64.46-96.4,178.83-142.42,214.61
		c-0.91,0.71-1.13,2-0.51,2.97c9.99,15.67,91.22,124.21,294.76-119.83c0,0-108.98,147.12-183.93,180.99
		c-1.21,0.55-1.67,2.02-1.01,3.17c8.53,14.9,66.48,97.02,264.47-0.86c2.44-1.21,4.55,2.13,2.39,3.8
		c-22.42,17.32-73.44,49.26-163.71,68.92c-1.84,0.4-2.41,2.75-0.95,3.95c16.49,13.49,94.34,63.38,253.53-34.77
		c2.03-1.25,4.37,1.08,3.1,3.11c-10.69,17.09-47.88,59.77-163.12,88.52c-16.26,4.06-33.3,3.77-49.41-0.83
		c-36.55-10.42-102.19-32.55-116.55-60.36c-0.29-0.57-0.8-1-1.42-1.16c-9.59-2.57-87.41-24.2-103.6-52.71
		c-0.4-0.7-1.12-1.15-1.93-1.15c-12.75,0.06-114.99-0.71-134.1-40.82c-0.47-0.98-1.57-1.48-2.61-1.18
		c-9.05,2.56-49.07,11.26-67.97-28.72c-0.48-1.02-1.65-1.5-2.72-1.15c-11.2,3.65-69.16,20.39-101.53-12.65
		c-0.46-0.47-1.09-0.72-1.75-0.68c-6.33,0.45-43.23-2.84-60.27-34.33c-1.16-2.15,3.89-0.17,5.87,1.27
		c22.74,16.51,93.41,36.1,196.86-228.98l-86.66,214.88c-0.4,0.99-0.06,2.11,0.82,2.71c12.03,8.2,95.9,55.59,200.73-132.82
		C1248.15,162.31,1173.09,294.85,1153.49,311.51z"/>
	<path class="st21" d="M1270.13,349.9c0,0,101.11,84,278.81-157.02c0,0-121.53,207.32-249.19,180.77
		C1299.75,373.64,1277.39,373.58,1270.13,349.9z"/>
	<path class="st21" d="M1380.4,421.17c5.81-2.36,103.15,17.36,237.96-30.64c0,0-117.57,56.3-228.77,44.94L1380.4,421.17z"/>
	<path class="st21" d="M1560.15,524.32c0,0,89.87,58.94,187.91,15.68c0,0-78.74,62.25-214.47-20.79L1560.15,524.32z"/>
	<path class="st21" d="M1530.21,511.76c8.68,74.55,93.75,83.85,150.64,27.94c0,0-113.36,115.04-164.43-34.06L1530.21,511.76z"/>
	<path class="st21" d="M926.53,301.31c-0.22-2.32,1.48-4.38,3.79-4.67c41.25-5.27,57.68-13.01,103.23-147.43
		c0,0-34.47,138.64-74.3,153.19C932.05,312.34,927,306.2,926.53,301.31z"/>
	<path class="st21" d="M862.87,314.96c0,0-22.48-69.7,67.65-218.3c0,0-74.55,156.26-46.21,202.21c0,0,142.62-327.78,79.66-157.02
		c-1.33,3.62-53.62,98.04-58.98,163.91c0,0-9.19,35.23-13.02,1.53C891.98,307.3,869.77,337.94,862.87,314.96z"/>
	<path class="st21" d="M829.42,332.88c0,0-26.32-132.53,19.06-217.86c0,0-43.57,42.66-30.86,217.86
		C817.62,332.88,822.16,351.95,829.42,332.88z"/>
	<path class="st22" d="M772.05,336.51c0,0-60.13-77.16,6.54-212.41c0,0-81.04,101.37-22.22,217.26
		C756.36,341.36,773.36,362.84,772.05,336.51z"/>
	<path class="st21" d="M723.21,371.92c0,0-73.53,35.4-16.34-193.35c0,0-74.09,200.73,4.54,207.88
		C711.41,386.44,732.29,390.07,723.21,371.92z"/>
	<path class="st21" d="M736.49,358.62c0,0-58.21-13.02-4.6-202.21c0,0-41.36,153.19,13.02,199.15
		C744.91,355.55,746.86,365.71,736.49,358.62z"/>
	<path class="st21" d="M676.71,386.74c0,0-66.6,0.85-8.39-178.7c0,0-71.23,142.16,2.3,190.41
		C670.62,398.45,688.16,401.07,676.71,386.74z"/>
	<path class="st21" d="M648.4,403.81c0,0-45.96-25.54-30.64-100.47c0,0-26.04,75.2,30.64,111.2
		C648.4,414.53,660.49,413.99,648.4,403.81z"/>
	<path class="st21" d="M783.98,337.17c0,0-4.6-94.98,36.77-180.77c0,0-39.83,115.13-29.87,167.1
		C790.87,323.5,793.94,350.96,783.98,337.17z"/>
	<path class="st21" d="M655.3,400.06c0,0-38.47-35.68,9.53-117.41c0,0-47.66,74.52-13.62,117.41
		C651.21,400.06,657.34,405.51,655.3,400.06z"/>
	<path class="st21" d="M605.51,407.64c0,0,4.85,164.68-262.72,195.32c0,0,232.85-13.79,258.51-190.47
		C601.3,412.49,603.21,406.23,605.51,407.64z"/>
	<path class="st21" d="M547.3,433.68c0,0-27.83,165.7-239.74,275.74c0,0,201.7-106.47,235.4-269.87
		C542.96,439.55,545.34,427.55,547.3,433.68z"/>
	<path class="st21" d="M528.15,454.36c0,0-24.51,123.32-182.3,222.89c0,0,129.74-77.7,178.6-221.36
		C524.45,455.89,527.64,450.02,528.15,454.36z"/>
	<path class="st23" d="M487.81,479.38c0,0-67.4,185.87-108.26,233.87c0,0,43.49-63.74,103.91-231.57
		C483.47,481.68,487.89,472.66,487.81,479.38z"/>
	<path class="st23" d="M584.83,431.94c0,0-25.28,116.64-209.87,194c0,0,172.09-74.55,200.17-188.43
		C575.13,437.51,578.19,423.81,584.83,431.94z"/>
	<path class="st21" d="M1545.85,534.53c0,0,97.02,52.09,202.21,35.74c0,0-91.57,20.77-209.7-35.74H1545.85z"/>
	<path class="st21" d="M1547.21,532.83c0,0,71.15,74.89,186.21,56.85c0,0-91.62,28.41-197.11-56.85H1547.21z"/>
	<path class="st21" d="M1042.87,341.04c0,0-340.09-52.13-663.32,274.17c0,0,255.66-301.87,668.68-287.23L1042.87,341.04z"/>
	<path class="st21" d="M1036.74,293.51c0,0-277.28-62.81-585.19,227.49c0,0,230.55-267.59,588.26-238.35L1036.74,293.51z"/>
	<path class="st21" d="M461.26,282.65c0,0,544-456,1181.96,170.11c0,0-228.09-283.61-577.36-328.66S495.98,237.07,461.26,282.65z"/>
	<path class="st21" d="M1435.04,495.8c0,0,56.68,57.6,42.13,98.5c-14.55,40.9-118.72,106.78-118.72,106.78
		s106.47-54.31,124.09-106.85c17.62-52.54-48.26-106.85-48.26-106.85"/>
	<path class="st21" d="M1529.26,665c0,0,151.15-28.34,218.81,13.79c0,0-77.87-39.83-218.81-8.43
		C1529.26,670.36,1511.89,670.11,1529.26,665z"/>
	<path class="st21" d="M1507.55,687.47c0,0,105.19,10.98,38.3,233.11c0,0,63.32-209.87-42.89-230.81
		C1502.96,689.77,1499.04,687.21,1507.55,687.47z"/>
	<path class="st21" d="M1455.98,722.45c0,0,97.02-62.3,162.38,141.96c0,0-57.7-191.49-162.38-138.89"/>
	<path class="st21" d="M1331.38,770.96c0,0,184.85-84.26,226.72,169.02c0,0-31.66-236.68-226.72-165.45
		C1331.38,774.53,1326.02,774.15,1331.38,770.96z"/>
	<path class="st21" d="M1033.55,857.26c0,0,145.66-2.04,183.45,88.85c0,0-23.49-81.71-192-88.85
		C1025,857.25,1028.74,857.21,1033.55,857.26z"/>
	<path class="st21" d="M1025,838.36c0,0,103.15-35.23,230.3,93.96c0,0-127.15-124.6-230.3-89.87
		C1025,842.45,1016.57,842.7,1025,838.36z"/>
	<path class="st21" d="M1001.51,824.57c0,0,98.04-15.32,198.64,55.15c0,0-73.79-67.66-198.64-59.23
		C1001.51,820.49,989.51,824.57,1001.51,824.57z"/>
	<path class="st21" d="M1121,818.11c0.67-0.13,118.47-35.4,164.09,102.81c0,0-27.23-141.28-164.09-105.53
		C1121,815.38,1107.76,820.72,1121,818.11z"/>
	<path class="st21" d="M1259.89,785.26c0,0,186.89-80.17,232.34,179.74c0,0-41.17-246.68-232.34-176.05
		C1259.89,788.95,1252.74,790.36,1259.89,785.26z"/>
	<path class="st21" d="M1409,746.96c0,0,136.69-45.96,159.11,147.06c0,0-6.95-176.65-159.11-140.94
		C1409,753.09,1397.77,752.83,1409,746.96z"/>
	<path class="st21" d="M1230.53,792.15c0,0,104.17-17.92,160.09,91c0,0-52.09-101.72-160.09-87.17
		C1230.53,795.98,1219.04,797.51,1230.53,792.15z"/>
	<path class="st21" d="M1200.15,799.81c29.52-10.51,182.21,13.02,243.4,129.45c0,0-68.26-128.7-246.72-125.24
		C1196.83,804.01,1185.09,805.17,1200.15,799.81z"/>
	<path class="st21" d="M1178.45,806.05c0,0,148.6-20.29,212.17,103.8c0,0-68.94-119.55-216.77-103.8
		C1173.85,806.05,1173.67,806.88,1178.45,806.05z"/>
	<path class="st21" d="M1078.02,824.78c0,0,52.94-20.37,128,51.63c0,0-72.09-67.83-125.19-49.79L1078.02,824.78z"/>
	<path class="st21" d="M1267.44,795.44c0,0,99.68-52.57,262.58,32.71c0,0-127.83-76.43-257.19-32.85L1267.44,795.44z"/>
	<path class="st21" d="M840.66,837.1c0,0-9.19,59.99,0,156.5c0,0-3.57-112.05,2.55-143.85C843.21,849.74,850.36,826.13,840.66,837.1
		z"/>
	<path class="st21" d="M996.18,840.91c0,0,42.16-26.55,0,123.57c0,0,43.63-130.38,3.8-130.3
		C999.98,834.19,988.29,838.87,996.18,840.91z"/>
	<path class="st21" d="M984.4,854.45"/>
	<path class="st21" d="M885.6,826.11c0,0,105.36-0.51,135.66,129.7c0,0-25.36-120-137.7-126.64
		C883.55,829.17,876.12,825.35,885.6,826.11z"/>
	<path class="st21" d="M767.64,809.26c0,0-11.23-38.3-76.6,60.26c0,0,49.02-90.89,76.6-63.83
		C767.64,805.68,770.36,808.4,767.64,809.26z"/>
	<path class="st21" d="M494.96,758.19c0,0-41.87-58.72-149.11-4.6c0,0,100.09-48.51,145.53,4.6
		C491.38,758.19,493.94,761,494.96,758.19z"/>
	<path class="st21" d="M676.74,804.15c0,0-33.19-50.55-146.04-7.15c0,0,111.51-38.18,141.96,7.15
		C672.66,804.15,675.21,807.21,676.74,804.15z"/>
	<path class="st21" d="M605.52,775.04c0,0-53.88-34.07-84.01,25.6c0,0,27.06-52.16,77.11-26.12
		C598.62,774.53,603.72,777.6,605.52,775.04z"/>
	<path class="st21" d="M596.23,776.91c0,0-49.19-46.3-40,76.26c0,0-6.81-113.36,36.77-75.57C593,777.6,595.21,779.98,596.23,776.91z
		"/>
	<path class="st21" d="M465.1,737.22c0,0,22.46-7.51,46.97-6.54c3.96,0.16,16.28,4.3,36.44,10.36
		c104.47,31.39,419.51,114.2,873.48-39.96c0,0-407.2,192.21-891.28,43.98C530.7,745.06,488.51,731.39,465.1,737.22z"/>
	<path class="st21" d="M406.62,577.94c0,0-28.09,40.85-55.66,40.34c0,0-6.21,38.88,28.6,34.9c0,0,36.78,73.24,63.78,80.96
		c0,0-49.48-52.03-56.63-82.67C386.7,651.47,406.62,608.06,406.62,577.94z"/>
	<path class="st21" d="M347.89,623.89c0,0-64.34,36.14-82.98,50.19c0,0-115.56,145.24,170.91,56.96c0,0-176.55,16.92-154.06-49.3
		L347.89,623.89z"/>
</g>
<g id="Warstwa_3">
	<path class="st24" d="M1506.02,505.63c0,0,58.21,29.82,131.23,0c0,0-30.64,19.44-79.15,18.3c0,0,28.73,9.95,72.51-4.71
		c0,0-55.66,33.19-133.28,0c0,0,20.8,6.62,41.02,7.57c0.8,0.04,1.59,0.07,2.38,0.09C1561.68,527.38,1511.43,515.02,1506.02,505.63z"
		/>
	<path class="st24" d="M1398.79,443.13c0,0,53.62,32.17,114.89,15.83c0,0-70.57,44.18-145.53-5.6c0,0,14.3,11.22,46.47,14.79
		c0,0-17.36-4.09-38.81-22.47c0,0,40.85,25.02,61.28,22.47C1437.09,468.15,1415.01,461.73,1398.79,443.13z"/>
	<path class="st24" d="M1273.68,375.99c0,0,52.09,41.09,125.62,6.88c0,0-30.64,22.98-69.96,24c0,0,19.11,5.8,34.72,2.04
		c0,0-7.15,7.64-47.49,4.84c0,0,21.45,11.5,35.74,10.99c0,0-61.28,2.04-102.64-30.13c0,0,30.13,17.87,46.98,15.32
		c0,0-13.23-2.04-26.53-12.77c0,0,17.34,8.68,37.77,6.64C1307.89,403.81,1287.98,393.11,1273.68,375.99z"/>
	<path class="st24" d="M1139.69,339.63c0,0,76.6,45.45,170.04-74.55c0,0-78.13,121.02-164.43,86.3
		C1145.31,351.37,1133.05,339.63,1139.69,339.63z"/>
	<path class="st24" d="M1040.32,336.6c0,0,55.49,5.59,135.7-66.74c0,0-66.98,98.42-147.19,79.15c0,0,39.96,4.09,59.36-10.72
		c0,0-39.57,13.28-59.36,4.6c0,0,42,4.09,57.83-10.21C1086.65,332.67,1054.96,341.35,1040.32,336.6z"/>
	<path class="st24" d="M972.4,323.5c0,0,37.79,8.31,88.34-80.55c0,0-17.44,63.32-80.72,89.36
		C980.02,332.32,964.74,328.99,972.4,323.5z"/>
	<path class="st24" d="M869.09,310.69c0,0-11.57-57.69,27.57-146.2c0,0-35.06,112.68-18.38,138.55l-7.49-13.28L869.09,310.69z"/>
	<path class="st24" d="M760.83,338.79c0,0-48.97-82.04-4.06-171.23c0,0-40.2,72.17,9.51,168.17
		C766.28,335.72,763.9,344.57,760.83,338.79z"/>
	<path class="st24" d="M1320.78,379.45c0,0,83.62,12.11,124.22-128.06c0,0-20.95,122.81-124.22,134.04
		C1320.78,385.43,1313.29,383.04,1320.78,379.45z"/>
</g>
</svg>
